_Griffith_Gothic-Italic_WebTT.ufo
<glyph name="ampersand" format="1">
  <advance width="1398.784"/>
  <unicode hex="0026"/>
  <outline>
    <contour>
      <point x="1239" y="815" type="qcurve"/>
      <point x="1366" y="745" type="line"/>
      <point x="1274.20895522" y="603.208955224"/>
      <point x="1077.74626866" y="350.268656716"/>
      <point x="977" y="254" type="qcurve"/>
      <point x="1033.71641791" y="166.686567164"/>
      <point x="1129.82089552" y="123.0"/>
      <point x="1194" y="123" type="qcurve" smooth="yes"/>
      <point x="1220.11940299" y="123.0"/>
      <point x="1262.3880597" y="127.029850746"/>
      <point x="1290" y="133" type="qcurve"/>
      <point x="1253" y="-4" type="line"/>
      <point x="1223.89552239" y="-8.4776119403"/>
      <point x="1178.10447761" y="-12.0"/>
      <point x="1149" y="-12" type="qcurve" smooth="yes"/>
      <point x="1049.74626866" y="-12.0"/>
      <point x="914.179104478" y="55.7313432836"/>
      <point x="850" y="152" type="qcurve"/>
      <point x="743.28358209" y="69.1641791045"/>
      <point x="534.179104478" y="-20.0"/>
      <point x="420" y="-20" type="qcurve" smooth="yes"/>
      <point x="253.582089552" y="-20.0"/>
      <point x="41.0" y="161.343283582"/>
      <point x="41" y="330" type="qcurve" smooth="yes"/>
      <point x="41.0" y="500.895522388"/>
      <point x="272.925373134" y="777.223880597"/>
      <point x="508" y="872" type="qcurve"/>
      <point x="483.373134328" y="941.402985075"/>
      <point x="461.0" y="1053.82089552"/>
      <point x="461" y="1118" type="qcurve" smooth="yes"/>
      <point x="461.0" y="1276.95522388"/>
      <point x="675.552238806" y="1499.0"/>
      <point x="836" y="1499" type="qcurve" smooth="yes"/>
      <point x="967.343283582" y="1499.0"/>
      <point x="1108.0" y="1359.95522388"/>
      <point x="1108" y="1251" type="qcurve" smooth="yes"/>
      <point x="1108.0" y="1112.19402985"/>
      <point x="891.52238806" y="908.626865672"/>
      <point x="696" y="834" type="qcurve"/>
      <point x="758.686567164" y="675.044776119"/>
      <point x="857.0" y="454.552238806"/>
      <point x="907" y="365" type="qcurve"/>
      <point x="995.805970149" y="454.552238806"/>
      <point x="1164.37313433" y="688.134328358"/>
    </contour>
    <contour>
      <point x="471" y="113" type="qcurve" smooth="yes"/>
      <point x="548.611940299" y="113.0"/>
      <point x="708.388059701" y="186.328358209"/>
      <point x="786" y="252" type="qcurve"/>
      <point x="730.029850746" y="352.746268657"/>
      <point x="618.164179104" y="599.104477612"/>
      <point x="551" y="770" type="qcurve"/>
      <point x="380.104477612" y="698.358208955"/>
      <point x="219.0" y="483.373134328"/>
      <point x="219" y="358" type="qcurve" smooth="yes"/>
      <point x="219.0" y="245.313432836"/>
      <point x="356.074626866" y="113.0"/>
    </contour>
    <contour>
      <point x="651" y="926" type="qcurve"/>
      <point x="811.447761194" y="988.686567164"/>
      <point x="963.0" y="1136.76119403"/>
      <point x="963" y="1239" type="qcurve" smooth="yes"/>
      <point x="963.0" y="1304.67164179"/>
      <point x="890.671641791" y="1386.0"/>
      <point x="825" y="1386" type="qcurve" smooth="yes"/>
      <point x="730.223880597" y="1386.0"/>
      <point x="618.0" y="1235.23880597"/>
      <point x="618" y="1133" type="qcurve" smooth="yes"/>
      <point x="618.0" y="1077.7761194"/>
      <point x="634.582089552" y="977.492537313"/>
    </contour>
  </outline>
</glyph>
<glyph name="parenleft" format="1">
  <advance width="671.744"/>
  <unicode hex="0028"/>
  <outline>
    <contour>
      <point x="696" y="1505" type="qcurve"/>
      <point x="868" y="1505" type="line"/>
      <point x="585.164179104" y="1274.40298507"/>
      <point x="299.0" y="707.253731343"/>
      <point x="299" y="408" type="qcurve" smooth="yes"/>
      <point x="299.0" y="233.373134328"/>
      <point x="362.865671642" y="-43.5074626866"/>
      <point x="436" y="-195" type="qcurve"/>
      <point x="293" y="-195" type="line"/>
      <point x="216.134328358" y="-71.1194029851"/>
      <point x="113.0" y="246.388059701"/>
      <point x="113" y="424" type="qcurve" smooth="yes"/>
      <point x="113.0" y="752.358208955"/>
      <point x="436.298507463" y="1310.97014925"/>
    </contour>
  </outline>
</glyph>
<glyph name="plus" format="1">
  <advance width="1228.8"/>
  <unicode hex="002B"/>
  <outline>
    <contour>
      <point x="1188" y="803" type="line"/>
      <point x="1188" y="651" type="line"/>
      <point x="741" y="651" type="line"/>
      <point x="741" y="203" type="line"/>
      <point x="586" y="203" type="line"/>
      <point x="586" y="651" type="line"/>
      <point x="139" y="651" type="line"/>
      <point x="139" y="803" type="line"/>
      <point x="586" y="803" type="line"/>
      <point x="586" y="1251" type="line"/>
      <point x="741" y="1251" type="line"/>
      <point x="741" y="803" type="line"/>
    </contour>
  </outline>
</glyph>
<glyph name="slash" format="1">
  <advance width="804.864"/>
  <unicode hex="002F"/>
  <outline>
    <contour>
      <point x="838" y="1505" type="line"/>
      <point x="1016" y="1505" type="line"/>
      <point x="-31" y="-195" type="line"/>
      <point x="-211" y="-195" type="line"/>
    </contour>
  </outline>
</glyph>
<glyph name="two" format="1">
  <advance width="1132.544"/>
  <unicode hex="0032"/>
  <outline>
    <contour>
      <point x="768" y="1499" type="qcurve" smooth="yes"/>
      <point x="945.611940299" y="1499.0"/>
      <point x="1145.0" y="1307.98507463"/>
      <point x="1145" y="1155" type="qcurve" smooth="yes"/>
      <point x="1145.0" y="971.417910448"/>
      <point x="905.134328358" y="713.373134328"/>
      <point x="682" y="588" type="qcurve" smooth="yes"/>
      <point x="490.955223881" y="480.537313433"/>
      <point x="267.746268657" y="256.910447761"/>
      <point x="217" y="139" type="qcurve"/>
      <point x="936" y="139" type="line"/>
      <point x="903" y="0" type="line"/>
      <point x="-12" y="0" type="line"/>
      <point x="14" y="119" type="line"/>
      <point x="98.328358209" y="294.373134328"/>
      <point x="368.895522388" y="568.656716418"/>
      <point x="598" y="700" type="qcurve" smooth="yes"/>
      <point x="777.104477612" y="802.985074627"/>
      <point x="963.0" y="1002.43283582"/>
      <point x="963" y="1139" type="qcurve" smooth="yes"/>
      <point x="963.0" y="1235.26865672"/>
      <point x="851.447761194" y="1358.0"/>
      <point x="741" y="1358" type="qcurve" smooth="yes"/>
      <point x="640.253731343" y="1358.0"/>
      <point x="462.28358209" y="1236.89552239"/>
      <point x="369" y="1116" type="qcurve"/>
      <point x="240" y="1200" type="line"/>
      <point x="348.208955224" y="1341.04477612"/>
      <point x="601.582089552" y="1499.0"/>
    </contour>
  </outline>
</glyph>
<glyph name="three" format="1">
  <advance width="1069.056"/>
  <unicode hex="0033"/>
  <outline>
    <contour>
      <point x="727" y="1499" type="qcurve" smooth="yes"/>
      <point x="885.955223881" y="1499.0"/>
      <point x="1065.0" y="1348.85074627"/>
      <point x="1065" y="1219" type="qcurve" smooth="yes"/>
      <point x="1065.0" y="1077.95522388"/>
      <point x="855.71641791" y="893.388059701"/>
      <point x="649" y="821" type="qcurve"/>
      <point x="653" y="813" type="line"/>
      <point x="803.0" y="808.52238806"/>
      <point x="993.0" y="668.0"/>
      <point x="993" y="518" type="qcurve" smooth="yes"/>
      <point x="993.0" y="276.955223881"/>
      <point x="479.925373134" y="-8.0"/>
      <point x="115" y="-8" type="qcurve" smooth="yes"/>
      <point x="59.776119403" y="-8.0"/>
      <point x="-31.7611940299" y="-4.4776119403"/>
      <point x="-84" y="0" type="qcurve"/>
      <point x="-57" y="135" type="line"/>
      <point x="-11.4776119403" y="132.014925373"/>
      <point x="56.9850746269" y="127.0"/>
      <point x="104" y="127" type="qcurve" smooth="yes"/>
      <point x="398.029850746" y="127.0"/>
      <point x="807.0" y="331.910447761"/>
      <point x="807" y="514" type="qcurve" smooth="yes"/>
      <point x="807.0" y="625.940298507"/>
      <point x="666.940298507" y="723.0"/>
      <point x="555" y="723" type="qcurve" smooth="yes"/>
      <point x="516.940298507" y="723.0"/>
      <point x="439.298507463" y="714.462686567"/>
      <point x="399" y="707" type="qcurve"/>
      <point x="383" y="825" type="line"/>
      <point x="673.298507463" y="907.835820896"/>
      <point x="881.0" y="1082.05970149"/>
      <point x="881" y="1194" type="qcurve" smooth="yes"/>
      <point x="881.0" y="1270.11940299"/>
      <point x="782.805970149" y="1360.0"/>
      <point x="694" y="1360" type="qcurve" smooth="yes"/>
      <point x="605.194029851" y="1360.0"/>
      <point x="426.268656716" y="1285.37313433"/>
      <point x="330" y="1210" type="qcurve"/>
      <point x="252" y="1313" type="line"/>
      <point x="363.194029851" y="1398.07462687"/>
      <point x="595.656716418" y="1499.0"/>
    </contour>
  </outline>
</glyph>
<glyph name="five" format="1">
  <advance width="1112.064"/>
  <unicode hex="0035"/>
  <outline>
    <contour>
      <point x="422" y="1475" type="line"/>
      <point x="1151" y="1475" type="line"/>
      <point x="1118" y="1325" type="line"/>
      <point x="518" y="1325" type="line"/>
      <point x="356" y="815" type="line"/>
      <point x="373" y="815" type="line"/>
      <point x="443.149253731" y="879.179104478"/>
      <point x="586.71641791" y="948.0"/>
      <point x="680" y="948" type="qcurve" smooth="yes"/>
      <point x="840.447761194" y="948.0"/>
      <point x="1034.0" y="752.611940299"/>
      <point x="1034" y="575" type="qcurve" smooth="yes"/>
      <point x="1034" y="569" type="line" smooth="yes"/>
      <point x="1034.0" y="309.298507463"/>
      <point x="684.656716418" y="-20.0"/>
      <point x="416" y="-20" type="qcurve" smooth="yes"/>
      <point x="274.955223881" y="-20.0"/>
      <point x="62.2537313433" y="42.5373134328"/>
      <point x="-37" y="100" type="qcurve"/>
      <point x="41" y="236" type="line"/>
      <point x="128.313432836" y="182.268656716"/>
      <point x="315.76119403" y="123.0"/>
      <point x="418" y="123" type="qcurve" smooth="yes"/>
      <point x="604.567164179" y="123.0"/>
      <point x="848.0" y="365.925373134"/>
      <point x="848" y="551" type="qcurve" smooth="yes"/>
      <point x="848" y="555" type="line" smooth="yes"/>
      <point x="848.0" y="683.358208955"/>
      <point x="718.985074627" y="813.0"/>
      <point x="616" y="813" type="qcurve" smooth="yes"/>
      <point x="529.432835821" y="813.0"/>
      <point x="412.656716418" y="746.71641791"/>
      <point x="344" y="690" type="qcurve"/>
      <point x="180" y="690" type="line"/>
    </contour>
  </outline>
</glyph>
<glyph name="colon" format="1">
  <advance width="440.32"/>
  <unicode hex="003A"/>
  <outline>
    <contour>
      <point x="117" y="225" type="qcurve" smooth="yes"/>
      <point x="167.0" y="225.0"/>
      <point x="236.0" y="156.746268657"/>
      <point x="236" y="106" type="qcurve" smooth="yes"/>
      <point x="236.0" y="54.5074626866"/>
      <point x="167.0" y="-14.0"/>
      <point x="117" y="-14" type="qcurve" smooth="yes"/>
      <point x="64.7611940299" y="-14.0"/>
      <point x="-2.0" y="54.5074626866"/>
      <point x="-2" y="106" type="qcurve" smooth="yes"/>
      <point x="-2.0" y="156.746268657"/>
      <point x="64.7611940299" y="225.0"/>
    </contour>
    <contour>
      <point x="326" y="1075" type="qcurve" smooth="yes"/>
      <point x="377.492537313" y="1075.0"/>
      <point x="444.0" y="1006.74626866"/>
      <point x="444" y="956" type="qcurve" smooth="yes"/>
      <point x="444.0" y="904.507462687"/>
      <point x="377.492537313" y="836.0"/>
      <point x="326" y="836" type="qcurve" smooth="yes"/>
      <point x="273.76119403" y="836.0"/>
      <point x="205.0" y="904.507462687"/>
      <point x="205" y="956" type="qcurve" smooth="yes"/>
      <point x="205.0" y="1006.74626866"/>
      <point x="273.76119403" y="1075.0"/>
    </contour>
  </outline>
</glyph>
<glyph name="semicolon" format="1">
  <advance width="440.32"/>
  <unicode hex="003B"/>
  <outline>
    <contour>
      <point x="328" y="1075" type="qcurve" smooth="yes"/>
      <point x="379.492537313" y="1075.0"/>
      <point x="446.0" y="1006.74626866"/>
      <point x="446" y="956" type="qcurve" smooth="yes"/>
      <point x="446.0" y="904.507462687"/>
      <point x="379.492537313" y="836.0"/>
      <point x="328" y="836" type="qcurve" smooth="yes"/>
      <point x="277.253731343" y="836.0"/>
      <point x="209.0" y="904.507462687"/>
      <point x="209" y="956" type="qcurve" smooth="yes"/>
      <point x="209.0" y="1006.74626866"/>
      <point x="277.253731343" y="1075.0"/>
    </contour>
    <contour>
      <point x="51" y="231" type="line"/>
      <point x="258" y="231" type="line"/>
      <point x="-18" y="-242" type="line"/>
      <point x="-129" y="-242" type="line"/>
    </contour>
  </outline>
</glyph>
<glyph name="less" format="1">
  <advance width="1228.8"/>
  <unicode hex="003C"/>
  <outline>
    <contour>
      <point x="1167" y="358" type="line"/>
      <point x="1167" y="195" type="line"/>
      <point x="145" y="651" type="line"/>
      <point x="145" y="803" type="line"/>
      <point x="1167" y="1260" type="line"/>
      <point x="1167" y="1096" type="line"/>
      <point x="319" y="727" type="line"/>
    </contour>
  </outline>
</glyph>
<glyph name="equal" format="1">
  <advance width="1228.8"/>
  <unicode hex="003D"/>
  <outline>
    <contour>
      <point x="1157" y="557" type="line"/>
      <point x="1157" y="399" type="line"/>
      <point x="168" y="399" type="line"/>
      <point x="168" y="557" type="line"/>
    </contour>
    <contour>
      <point x="1157" y="1055" type="line"/>
      <point x="1157" y="897" type="line"/>
      <point x="168" y="897" type="line"/>
      <point x="168" y="1055" type="line"/>
    </contour>
  </outline>
</glyph>
<glyph name="at" format="1">
  <advance width="2011.136"/>
  <unicode hex="0040"/>
  <outline>
    <contour>
      <point x="1059" y="1499" type="qcurve" smooth="yes"/>
      <point x="1423.92537313" y="1499.0"/>
      <point x="1927.0" y="1050.65671642"/>
      <point x="1927" y="682" type="qcurve" smooth="yes"/>
      <point x="1927.0" y="405.134328358"/>
      <point x="1635.07462687" y="61.0"/>
      <point x="1450" y="61" type="qcurve" smooth="yes"/>
      <point x="1327.6119403" y="61.0"/>
      <point x="1200.95522388" y="197.298507463"/>
      <point x="1192" y="307" type="qcurve"/>
      <point x="1182" y="307" type="line"/>
      <point x="1113.34328358" y="192.820895522"/>
      <point x="938.776119403" y="61.0"/>
      <point x="844" y="61" type="qcurve" smooth="yes"/>
      <point x="724.597014925" y="61.0"/>
      <point x="580.0" y="245.313432836"/>
      <point x="580" y="408" type="qcurve" smooth="yes"/>
      <point x="580.0" y="649.044776119"/>
      <point x="801.388059701" y="1055.0"/>
      <point x="979" y="1055" type="qcurve" smooth="yes"/>
      <point x="1087.20895522" y="1055.0"/>
      <point x="1210.91044776" y="917.746268657"/>
      <point x="1243" y="817" type="qcurve"/>
      <point x="1253" y="815" type="line"/>
      <point x="1292" y="1051" type="line"/>
      <point x="1450" y="1012" type="line"/>
      <point x="1339" y="389" type="line" smooth="yes"/>
      <point x="1321.08955224" y="285.268656716"/>
      <point x="1393.23880597" y="137.0"/>
      <point x="1491" y="137" type="qcurve" smooth="yes"/>
      <point x="1625.32835821" y="137.0"/>
      <point x="1847.0" y="445.910447761"/>
      <point x="1847" y="678" type="qcurve" smooth="yes"/>
      <point x="1847.0" y="1023.52238806"/>
      <point x="1401.50746269" y="1432.0"/>
      <point x="1053" y="1432" type="qcurve" smooth="yes"/>
      <point x="690.313432836" y="1432.0"/>
      <point x="190.0" y="912.910447761"/>
      <point x="190" y="545" type="qcurve" smooth="yes"/>
      <point x="190.0" y="156.940298507"/>
      <point x="654.895522388" y="-326.0"/>
      <point x="1034" y="-326" type="qcurve" smooth="yes"/>
      <point x="1220.56716418" y="-326.0"/>
      <point x="1506.17910448" y="-250.626865672"/>
      <point x="1642" y="-176" type="qcurve"/>
      <point x="1675" y="-233" type="line"/>
      <point x="1533.20895522" y="-309.865671642"/>
      <point x="1228.50746269" y="-393.0"/>
      <point x="1030" y="-393" type="qcurve" smooth="yes"/>
      <point x="617.313432836" y="-393.0"/>
      <point x="109.0" y="122.850746269"/>
      <point x="109" y="543" type="qcurve" smooth="yes"/>
      <point x="109.0" y="945.985074627"/>
      <point x="670.940298507" y="1499.0"/>
    </contour>
    <contour>
      <point x="913" y="168" type="qcurve" smooth="yes"/>
      <point x="1029.41791045" y="168.0"/>
      <point x="1221.0" y="483.119402985"/>
      <point x="1221" y="657" type="qcurve" smooth="yes"/>
      <point x="1221.0" y="762.970149254"/>
      <point x="1116.80597015" y="936.0"/>
      <point x="1028" y="936" type="qcurve" smooth="yes"/>
      <point x="907.104477612" y="936.0"/>
      <point x="743.0" y="633.164179104"/>
      <point x="743" y="416" type="qcurve" smooth="yes"/>
      <point x="743.0" y="302.567164179"/>
      <point x="830.910447761" y="168.0"/>
    </contour>
  </outline>
</glyph>
<glyph name="D" format="1">
  <advance width="1271.808"/>
  <unicode hex="0044"/>
  <outline>
    <contour>
      <point x="1253" y="958" type="qcurve" smooth="yes"/>
      <point x="1253" y="952" type="line" smooth="yes"/>
      <point x="1253.0" y="887.820895522"/>
      <point x="1239.92537313" y="770.671641791"/>
      <point x="1225" y="705" type="qcurve" smooth="yes"/>
      <point x="1145.14925373" y="365.447761194"/>
      <point x="710.746268657" y="0.0"/>
      <point x="410" y="0" type="qcurve" smooth="yes"/>
      <point x="27" y="0" type="line"/>
      <point x="393" y="1475" type="line"/>
      <point x="709" y="1475" type="line" smooth="yes"/>
      <point x="950.044776119" y="1475.0"/>
      <point x="1253.0" y="1221.43283582"/>
    </contour>
    <contour>
      <point x="1026" y="686" type="qcurve" smooth="yes"/>
      <point x="1041.67164179" y="744.208955224"/>
      <point x="1059.0" y="879.313432836"/>
      <point x="1059" y="942" type="qcurve" smooth="yes"/>
      <point x="1059" y="948" type="line" smooth="yes"/>
      <point x="1059.0" y="1136.05970149"/>
      <point x="852.417910448" y="1327.0"/>
      <point x="686" y="1327" type="qcurve" smooth="yes"/>
      <point x="543" y="1327" type="line"/>
      <point x="250" y="147" type="line"/>
      <point x="422" y="147" type="line" smooth="yes"/>
      <point x="630.955223881" y="147.0"/>
      <point x="957.343283582" y="424.805970149"/>
    </contour>
  </outline>
</glyph>
<glyph name="E" format="1">
  <advance width="1132.544"/>
  <unicode hex="0045"/>
  <outline>
    <contour>
      <point x="393" y="1475" type="line"/>
      <point x="1268" y="1475" type="line"/>
      <point x="1233" y="1325" type="line"/>
      <point x="543" y="1325" type="line"/>
      <point x="422" y="840" type="line"/>
      <point x="981" y="840" type="line"/>
      <point x="946" y="698" type="line"/>
      <point x="389" y="698" type="line"/>
      <point x="252" y="150" type="line"/>
      <point x="963" y="150" type="line"/>
      <point x="924" y="0" type="line"/>
      <point x="27" y="0" type="line"/>
    </contour>
  </outline>
</glyph>
<glyph name="I" format="1">
  <advance width="817.152"/>
  <unicode hex="0049"/>
  <outline>
    <contour>
      <point x="342" y="1475" type="line"/>
      <point x="946" y="1475" type="line"/>
      <point x="924" y="1386" type="line"/>
      <point x="715" y="1386" type="line"/>
      <point x="391" y="88" type="line"/>
      <point x="600" y="88" type="line"/>
      <point x="578" y="0" type="line"/>
      <point x="-27" y="0" type="line"/>
      <point x="-4" y="88" type="line"/>
      <point x="203" y="88" type="line"/>
      <point x="526" y="1386" type="line"/>
      <point x="319" y="1386" type="line"/>
    </contour>
  </outline>
</glyph>
<glyph name="K" format="1">
  <advance width="1230.848"/>
  <unicode hex="004B"/>
  <outline>
    <contour>
      <point x="1210" y="1475" type="line"/>
      <point x="1436" y="1475" type="line"/>
      <point x="678" y="793" type="line"/>
      <point x="1098" y="0" type="line"/>
      <point x="893" y="0" type="line"/>
      <point x="473" y="801" type="line"/>
      <point x="475" y="807" type="line"/>
    </contour>
    <contour>
      <point x="393" y="1475" type="line"/>
      <point x="584" y="1475" type="line"/>
      <point x="215" y="0" type="line"/>
      <point x="27" y="0" type="line"/>
    </contour>
  </outline>
</glyph>
<glyph name="N" format="1">
  <advance width="1314.816"/>
  <unicode hex="004E"/>
  <outline>
    <contour>
      <point x="1212" y="1475" type="line"/>
      <point x="1389" y="1475" type="line"/>
      <point x="1020" y="0" type="line"/>
      <point x="819" y="0" type="line"/>
      <point x="518" y="1210" type="line"/>
      <point x="502" y="1210" type="line"/>
      <point x="203" y="0" type="line"/>
      <point x="27" y="0" type="line"/>
      <point x="393" y="1475" type="line"/>
      <point x="612" y="1475" type="line"/>
      <point x="905" y="297" type="line"/>
      <point x="920" y="297" type="line"/>
    </contour>
  </outline>
</glyph>
<glyph name="O" format="1">
  <advance width="1269.76"/>
  <unicode hex="004F"/>
  <outline>
    <contour>
      <point x="1253" y="1006" type="qcurve" smooth="yes"/>
      <point x="1253" y="999" type="line" smooth="yes"/>
      <point x="1253.0" y="928.850746269"/>
      <point x="1233.41791045" y="774.358208955"/>
      <point x="1217" y="696" type="qcurve" smooth="yes"/>
      <point x="1147.59701493" y="392.268656716"/>
      <point x="803.71641791" y="-25.0"/>
      <point x="547" y="-25" type="qcurve" smooth="yes"/>
      <point x="344.76119403" y="-25.0"/>
      <point x="119.0" y="241.388059701"/>
      <point x="119" y="469" type="qcurve" smooth="yes"/>
      <point x="119" y="475" type="line" smooth="yes"/>
      <point x="119.0" y="545.149253731"/>
      <point x="138.835820896" y="700.388059701"/>
      <point x="156" y="778" type="qcurve" smooth="yes"/>
      <point x="224.656716418" y="1082.47761194"/>
      <point x="568.28358209" y="1499.0"/>
      <point x="825" y="1499" type="qcurve" smooth="yes"/>
      <point x="1025.74626866" y="1499.0"/>
      <point x="1253.0" y="1233.6119403"/>
    </contour>
    <contour>
      <point x="1012" y="659" type="qcurve" smooth="yes"/>
      <point x="1038.11940299" y="753.776119403"/>
      <point x="1063.0" y="930.119402985"/>
      <point x="1063" y="1004" type="qcurve" smooth="yes"/>
      <point x="1063" y="1008" type="line" smooth="yes"/>
      <point x="1063.0" y="1151.28358209"/>
      <point x="940.343283582" y="1352.0"/>
      <point x="809" y="1352" type="qcurve" smooth="yes"/>
      <point x="654.52238806" y="1352.0"/>
      <point x="417.701492537" y="1039.62686567"/>
      <point x="358" y="815" type="qcurve" smooth="yes"/>
      <point x="332.626865672" y="720.223880597"/>
      <point x="307.0" y="544.134328358"/>
      <point x="307" y="471" type="qcurve" smooth="yes"/>
      <point x="307" y="467" type="line" smooth="yes"/>
      <point x="307.0" y="322.970149254"/>
      <point x="429.656716418" y="123.0"/>
      <point x="561" y="123" type="qcurve" smooth="yes"/>
      <point x="716.970149254" y="123.0"/>
      <point x="952.298507463" y="434.373134328"/>
    </contour>
  </outline>
</glyph>
<glyph name="P" format="1">
  <advance width="1171.456"/>
  <unicode hex="0050"/>
  <outline>
    <contour>
      <point x="791" y="1475" type="line" smooth="yes"/>
      <point x="1002.94029851" y="1475.0"/>
      <point x="1233.0" y="1293.13432836"/>
      <point x="1233" y="1120" type="qcurve" smooth="yes"/>
      <point x="1233.0" y="890.895522388"/>
      <point x="892.671641791" y="612.0"/>
      <point x="627" y="612" type="qcurve" smooth="yes"/>
      <point x="369" y="612" type="line"/>
      <point x="215" y="0" type="line"/>
      <point x="27" y="0" type="line"/>
      <point x="393" y="1475" type="line"/>
    </contour>
    <contour>
      <point x="623" y="754" type="line" smooth="yes"/>
      <point x="810.313432836" y="754.0"/>
      <point x="1042.0" y="940.567164179"/>
      <point x="1042" y="1104" type="qcurve" smooth="yes"/>
      <point x="1042.0" y="1215.19402985"/>
      <point x="902.776119403" y="1335.0"/>
      <point x="758" y="1335" type="qcurve" smooth="yes"/>
      <point x="543" y="1335" type="line"/>
      <point x="397" y="754" type="line"/>
    </contour>
  </outline>
</glyph>
<glyph name="Q" format="1">
  <advance width="1269.76"/>
  <unicode hex="0051"/>
  <outline>
    <contour>
      <point x="1253" y="1006" type="qcurve" smooth="yes"/>
      <point x="1253" y="999" type="line" smooth="yes"/>
      <point x="1253.0" y="928.850746269"/>
      <point x="1233.41791045" y="774.358208955"/>
      <point x="1217" y="696" type="qcurve" smooth="yes"/>
      <point x="1173.71641791" y="507.940298507"/>
      <point x="1006.40298507" y="194.776119403"/>
      <point x="887" y="100" type="qcurve"/>
      <point x="934" y="0" type="line" smooth="yes"/>
      <point x="958.626865672" y="-52.2388059701"/>
      <point x="1028.01492537" y="-96.0"/>
      <point x="1081" y="-96" type="qcurve" smooth="yes"/>
      <point x="1102.64179104" y="-96.0"/>
      <point x="1142.10447761" y="-89.9701492537"/>
      <point x="1163" y="-84" type="qcurve"/>
      <point x="1133" y="-207" type="line"/>
      <point x="1111.35820896" y="-212.970149254"/>
      <point x="1067.13432836" y="-219.0"/>
      <point x="1044" y="-219" type="qcurve" smooth="yes"/>
      <point x="961.910447761" y="-219.0"/>
      <point x="850.074626866" y="-157.074626866"/>
      <point x="815" y="-72" type="qcurve" smooth="yes"/>
      <point x="774" y="27" type="line"/>
      <point x="720.268656716" y="2.37313432836"/>
      <point x="606.701492537" y="-25.0"/>
      <point x="547" y="-25" type="qcurve" smooth="yes"/>
      <point x="344.76119403" y="-25.0"/>
      <point x="119.0" y="241.388059701"/>
      <point x="119" y="469" type="qcurve" smooth="yes"/>
      <point x="119" y="475" type="line" smooth="yes"/>
      <point x="119.0" y="545.149253731"/>
      <point x="138.835820896" y="700.388059701"/>
      <point x="156" y="778" type="qcurve" smooth="yes"/>
      <point x="224.656716418" y="1082.47761194"/>
      <point x="568.28358209" y="1499.0"/>
      <point x="825" y="1499" type="qcurve" smooth="yes"/>
      <point x="1025.74626866" y="1499.0"/>
      <point x="1253.0" y="1233.6119403"/>
    </contour>
    <contour>
      <point x="1010" y="653" type="qcurve" smooth="yes"/>
      <point x="1035.37313433" y="747.776119403"/>
      <point x="1063.0" y="930.119402985"/>
      <point x="1063" y="1004" type="qcurve" smooth="yes"/>
      <point x="1063" y="1008" type="line" smooth="yes"/>
      <point x="1063.0" y="1151.28358209"/>
      <point x="940.343283582" y="1352.0"/>
      <point x="809" y="1352" type="qcurve" smooth="yes"/>
      <point x="654.52238806" y="1352.0"/>
      <point x="419.194029851" y="1033.62686567"/>
      <point x="358" y="809" type="qcurve" smooth="yes"/>
      <point x="332.626865672" y="715.71641791"/>
      <point x="303.0" y="532.641791045"/>
      <point x="303" y="461" type="qcurve" smooth="yes"/>
      <point x="303" y="455" type="line" smooth="yes"/>
      <point x="303.0" y="310.970149254"/>
      <point x="427.656716418" y="111.0"/>
      <point x="559" y="111" type="qcurve" smooth="yes"/>
      <point x="605.268656716" y="111.0"/>
      <point x="688.940298507" y="135.880597015"/>
      <point x="727" y="162" type="qcurve"/>
      <point x="621" y="414" type="line"/>
      <point x="707" y="459" type="line"/>
      <point x="811" y="236" type="line"/>
      <point x="876.671641791" y="309.134328358"/>
      <point x="974.925373134" y="526.134328358"/>
    </contour>
  </outline>
</glyph>
<glyph name="R" format="1">
  <advance width="1226.752"/>
  <unicode hex="0052"/>
  <outline>
    <contour>
      <point x="809" y="1475" type="line" smooth="yes"/>
      <point x="1021.68656716" y="1475.0"/>
      <point x="1247.0" y="1299.64179104"/>
      <point x="1247" y="1128" type="qcurve" smooth="yes"/>
      <point x="1247.0" y="932.47761194"/>
      <point x="986.208955224" y="687.880597015"/>
      <point x="778" y="664" type="qcurve"/>
      <point x="1047" y="0" type="line"/>
      <point x="844" y="0" type="line"/>
      <point x="594" y="641" type="line"/>
      <point x="375" y="641" type="line"/>
      <point x="215" y="0" type="line"/>
      <point x="27" y="0" type="line"/>
      <point x="393" y="1475" type="line"/>
    </contour>
    <contour>
      <point x="645" y="774" type="line" smooth="yes"/>
      <point x="833.059701493" y="774.0"/>
      <point x="1061.0" y="948.567164179"/>
      <point x="1061" y="1112" type="qcurve" smooth="yes"/>
      <point x="1061.0" y="1222.44776119"/>
      <point x="919.52238806" y="1335.0"/>
      <point x="774" y="1335" type="qcurve" smooth="yes"/>
      <point x="543" y="1335" type="line"/>
      <point x="401" y="774" type="line"/>
    </contour>
  </outline>
</glyph>
<glyph name="U" format="1">
  <advance width="1275.904"/>
  <unicode hex="0055"/>
  <outline>
    <contour>
      <point x="1184" y="1475" type="line"/>
      <point x="1360" y="1475" type="line"/>
      <point x="1112" y="475" type="line" smooth="yes"/>
      <point x="1047.82089552" y="216.791044776"/>
      <point x="759.029850746" y="-25.0"/>
      <point x="565" y="-25" type="qcurve" smooth="yes"/>
      <point x="367.985074627" y="-25.0"/>
      <point x="129.0" y="164.447761194"/>
      <point x="129" y="354" type="qcurve" smooth="yes"/>
      <point x="129.0" y="406.23880597"/>
      <point x="143.313432836" y="515.507462687"/>
      <point x="156" y="567" type="qcurve" smooth="yes"/>
      <point x="381" y="1475" type="line"/>
      <point x="571" y="1475" type="line"/>
      <point x="346" y="563" type="line" smooth="yes"/>
      <point x="334.059701493" y="511.507462687"/>
      <point x="319.0" y="414.552238806"/>
      <point x="319" y="375" type="qcurve" smooth="yes"/>
      <point x="319.0" y="257.089552239"/>
      <point x="450.373134328" y="127.0"/>
      <point x="575" y="127" type="qcurve" smooth="yes"/>
      <point x="700.373134328" y="127.0"/>
      <point x="890.23880597" y="301.462686567"/>
      <point x="938" y="494" type="qcurve" smooth="yes"/>
    </contour>
  </outline>
</glyph>
<glyph name="V" format="1">
  <advance width="1275.904"/>
  <unicode hex="0056"/>
  <outline>
    <contour>
      <point x="1262" y="1475" type="line"/>
      <point x="1458" y="1475" type="line"/>
      <point x="608" y="-14" type="line"/>
      <point x="393" y="-14" type="line"/>
      <point x="287" y="1475" type="line"/>
      <point x="473" y="1475" type="line"/>
      <point x="541" y="184" type="line"/>
      <point x="553" y="184" type="line"/>
    </contour>
  </outline>
</glyph>
<glyph name="Z" format="1">
  <advance width="1122.304"/>
  <unicode hex="005A"/>
  <outline>
    <contour>
      <point x="346" y="1475" type="line"/>
      <point x="1286" y="1475" type="line"/>
      <point x="1251" y="1346" type="line"/>
      <point x="193" y="150" type="line"/>
      <point x="954" y="150" type="line"/>
      <point x="918" y="0" type="line"/>
      <point x="-61" y="0" type="line"/>
      <point x="-29" y="129" type="line"/>
      <point x="1032" y="1325" type="line"/>
      <point x="307" y="1325" type="line"/>
    </contour>
  </outline>
</glyph>
<glyph name="bracketright" format="1">
  <advance width="718.848"/>
  <unicode hex="005D"/>
  <outline>
    <contour>
      <point x="287" y="1475" type="line"/>
      <point x="821" y="1491" type="line"/>
      <point x="406" y="-180" type="line"/>
      <point x="-123" y="-164" type="line"/>
      <point x="-102" y="-74" type="line"/>
      <point x="260" y="-88" type="line"/>
      <point x="627" y="1399" type="line"/>
      <point x="264" y="1384" type="line"/>
    </contour>
  </outline>
</glyph>
<glyph name="asciicircum" format="1">
  <advance width="1126.4"/>
  <unicode hex="005E"/>
  <outline>
    <contour>
      <point x="883" y="1485" type="line"/>
      <point x="1104" y="834" type="line"/>
      <point x="989" y="834" type="line"/>
      <point x="762" y="1323" type="line"/>
      <point x="291" y="834" type="line"/>
      <point x="164" y="834" type="line"/>
      <point x="709" y="1485" type="line"/>
    </contour>
  </outline>
</glyph>
<glyph name="underscore" format="1">
  <advance width="1024.0"/>
  <unicode hex="005F"/>
  <outline>
    <contour>
      <point x="-162" y="-88" type="line"/>
      <point x="874" y="-88" type="line"/>
      <point x="852" y="-182" type="line"/>
      <point x="-184" y="-182" type="line"/>
    </contour>
  </outline>
</glyph>
<glyph name="m" format="1">
  <advance width="1607.68"/>
  <unicode hex="006D"/>
  <outline>
    <contour>
      <point x="1370" y="1077" type="qcurve" smooth="yes"/>
      <point x="1464.7761194" y="1077.0"/>
      <point x="1559.0" y="975.328358209"/>
      <point x="1559" y="891" type="qcurve" smooth="yes"/>
      <point x="1559.0" y="863.388059701"/>
      <point x="1548.95522388" y="792.567164179"/>
      <point x="1540" y="756" type="qcurve" smooth="yes"/>
      <point x="1352" y="0" type="line"/>
      <point x="1176" y="0" type="line"/>
      <point x="1356" y="721" type="line" smooth="yes"/>
      <point x="1363.46268657" y="750.104477612"/>
      <point x="1370.0" y="808.104477612"/>
      <point x="1370" y="829" type="qcurve" smooth="yes"/>
      <point x="1370.0" y="881.23880597"/>
      <point x="1319.46268657" y="942.0"/>
      <point x="1262" y="942" type="qcurve" smooth="yes"/>
      <point x="1199.31343284" y="942.0"/>
      <point x="1037.2238806" y="816.298507463"/>
      <point x="932" y="676" type="qcurve"/>
      <point x="766" y="0" type="line"/>
      <point x="588" y="0" type="line"/>
      <point x="768" y="721" type="line" smooth="yes"/>
      <point x="775.462686567" y="750.104477612"/>
      <point x="784.0" y="808.104477612"/>
      <point x="784" y="829" type="qcurve" smooth="yes"/>
      <point x="784.0" y="881.23880597"/>
      <point x="732.71641791" y="942.0"/>
      <point x="676" y="942" type="qcurve" smooth="yes"/>
      <point x="613.313432836" y="942.0"/>
      <point x="451.223880597" y="814.805970149"/>
      <point x="346" y="676" type="qcurve"/>
      <point x="178" y="0" type="line"/>
      <point x="0" y="0" type="line"/>
      <point x="260" y="1036" type="line"/>
      <point x="446" y="1083" type="line"/>
      <point x="375" y="795" type="line"/>
      <point x="387" y="795" type="line"/>
      <point x="497.447761194" y="932.313432836"/>
      <point x="678.268656716" y="1077.0"/>
      <point x="782" y="1077" type="qcurve" smooth="yes"/>
      <point x="876.776119403" y="1077.0"/>
      <point x="973.0" y="975.328358209"/>
      <point x="973" y="891" type="qcurve" smooth="yes"/>
      <point x="973.0" y="870.850746269"/>
      <point x="966.208955224" y="820.373134328"/>
      <point x="958" y="795" type="qcurve"/>
      <point x="973" y="795" type="line"/>
      <point x="1084.19402985" y="932.313432836"/>
      <point x="1266.26865672" y="1077.0"/>
    </contour>
  </outline>
</glyph>
<glyph name="n" format="1">
  <advance width="1026.048"/>
  <unicode hex="006E"/>
  <outline>
    <contour>
      <point x="786" y="1077" type="qcurve" smooth="yes"/>
      <point x="880.776119403" y="1077.0"/>
      <point x="977.0" y="975.328358209"/>
      <point x="977" y="891" type="qcurve" smooth="yes"/>
      <point x="977.0" y="863.388059701"/>
      <point x="965.701492537" y="792.567164179"/>
      <point x="956" y="756" type="qcurve" smooth="yes"/>
      <point x="770" y="0" type="line"/>
      <point x="592" y="0" type="line"/>
      <point x="772" y="721" type="line" smooth="yes"/>
      <point x="779.462686567" y="750.104477612"/>
      <point x="788.0" y="808.104477612"/>
      <point x="788" y="829" type="qcurve" smooth="yes"/>
      <point x="788.0" y="881.23880597"/>
      <point x="734.71641791" y="942.0"/>
      <point x="678" y="942" type="qcurve" smooth="yes"/>
      <point x="615.313432836" y="942.0"/>
      <point x="451.223880597" y="814.805970149"/>
      <point x="346" y="676" type="qcurve"/>
      <point x="178" y="0" type="line"/>
      <point x="0" y="0" type="line"/>
      <point x="260" y="1036" type="line"/>
      <point x="446" y="1083" type="line"/>
      <point x="375" y="795" type="line"/>
      <point x="387" y="795" type="line"/>
      <point x="497.447761194" y="932.313432836"/>
      <point x="682.268656716" y="1077.0"/>
    </contour>
  </outline>
</glyph>
<glyph name="r" format="1">
  <advance width="776.192"/>
  <unicode hex="0072"/>
  <outline>
    <contour>
      <point x="356" y="676" type="line"/>
      <point x="506.0" y="876.0"/>
      <point x="757.119402985" y="1080.01492537"/>
      <point x="881" y="1083" type="qcurve"/>
      <point x="834" y="901" type="line"/>
      <point x="703.402985075" y="889.059701493"/>
      <point x="447.597014925" y="707.507462687"/>
      <point x="317" y="559" type="qcurve"/>
      <point x="178" y="0" type="line"/>
      <point x="0" y="0" type="line"/>
      <point x="260" y="1036" type="line"/>
      <point x="446" y="1083" type="line"/>
      <point x="346" y="676" type="line"/>
    </contour>
  </outline>
</glyph>
<glyph name="y" format="1">
  <advance width="972.8"/>
  <unicode hex="0079"/>
  <outline>
    <contour>
      <point x="879" y="1065" type="line"/>
      <point x="1061" y="1065" type="line"/>
      <point x="354" y="-168" type="line" smooth="yes"/>
      <point x="277.880597015" y="-300.835820896"/>
      <point x="129.268656716" y="-395.0"/>
      <point x="33" y="-395" type="qcurve" smooth="yes"/>
      <point x="-35.6567164179" y="-395.0"/>
      <point x="-137.462686567" y="-369.641791045"/>
      <point x="-180" y="-348" type="qcurve"/>
      <point x="-147" y="-215" type="line"/>
      <point x="-98" y="-215" type="line"/>
      <point x="-81.5820895522" y="-253.059701493"/>
      <point x="-24.2537313433" y="-293.0"/>
      <point x="25" y="-293" type="qcurve" smooth="yes"/>
      <point x="64.552238806" y="-293.0"/>
      <point x="140.955223881" y="-241.164179104"/>
      <point x="182" y="-174" type="qcurve" smooth="yes"/>
      <point x="266" y="-35" type="line"/>
      <point x="180" y="1065" type="line"/>
      <point x="354" y="1065" type="line"/>
      <point x="395" y="164" type="line"/>
    </contour>
  </outline>
</glyph>
<glyph name="z" format="1">
  <advance width="868.352"/>
  <unicode hex="007A"/>
  <outline>
    <contour>
      <point x="223" y="1059" type="line"/>
      <point x="936" y="1059" type="line"/>
      <point x="911" y="950" type="line"/>
      <point x="160" y="125" type="line"/>
      <point x="705" y="125" type="line"/>
      <point x="674" y="0" type="line"/>
      <point x="-72" y="0" type="line"/>
      <point x="-45" y="109" type="line"/>
      <point x="705" y="934" type="line"/>
      <point x="190" y="934" type="line"/>
    </contour>
  </outline>
</glyph>
<glyph name="braceleft" format="1">
  <advance width="813.056"/>
  <unicode hex="007B"/>
  <outline>
    <contour>
      <point x="774" y="1475" type="qcurve" smooth="yes"/>
      <point x="983" y="1475" type="line"/>
      <point x="961" y="1384" type="line"/>
      <point x="819" y="1384" type="line" smooth="yes"/>
      <point x="731.686567164" y="1384.0"/>
      <point x="633.164179104" y="1311.65671642"/>
      <point x="616" y="1243" type="qcurve" smooth="yes"/>
      <point x="596.597014925" y="1168.37313433"/>
      <point x="597.402985075" y="994.850746269"/>
      <point x="578" y="915" type="qcurve" smooth="yes"/>
      <point x="547.402985075" y="796.343283582"/>
      <point x="404.223880597" y="691.850746269"/>
      <point x="299" y="662" type="qcurve"/>
      <point x="295" y="645" type="line"/>
      <point x="377.835820896" y="618.880597015"/>
      <point x="455.0" y="540.134328358"/>
      <point x="455" y="467" type="qcurve" smooth="yes"/>
      <point x="455.0" y="363.268656716"/>
      <point x="319.0" y="117.059701493"/>
      <point x="319" y="29" type="qcurve" smooth="yes"/>
      <point x="319.0" y="-18.7611940299"/>
      <point x="388.343283582" y="-74.0"/>
      <point x="457" y="-74" type="qcurve" smooth="yes"/>
      <point x="596" y="-74" type="line"/>
      <point x="573" y="-164" type="line"/>
      <point x="377" y="-164" type="line" smooth="yes"/>
      <point x="263.567164179" y="-164.0"/>
      <point x="152.0" y="-77.0746268657"/>
      <point x="152" y="8" type="qcurve" smooth="yes"/>
      <point x="152.0" y="125.910447761"/>
      <point x="289.0" y="366.731343284"/>
      <point x="289" y="463" type="qcurve" smooth="yes"/>
      <point x="289.0" y="531.656716418"/>
      <point x="176.432835821" y="610.0"/>
      <point x="63" y="610" type="qcurve"/>
      <point x="84" y="700" type="line"/>
      <point x="198.925373134" y="700.0"/>
      <point x="376.134328358" y="794.791044776"/>
      <point x="403" y="903" type="qcurve" smooth="yes"/>
      <point x="420.164179104" y="973.149253731"/>
      <point x="428.089552239" y="1170.37313433"/>
      <point x="446" y="1245" type="qcurve" smooth="yes"/>
      <point x="475.104477612" y="1361.41791045"/>
      <point x="635.194029851" y="1475.0"/>
    </contour>
  </outline>
</glyph>
<glyph name="cent" format="1">
  <advance width="958.464"/>
  <unicode hex="00A2"/>
  <outline>
    <contour>
      <point x="942" y="1260" type="line"/>
      <point x="1053" y="1260" type="line"/>
      <point x="305" y="133" type="line"/>
      <point x="329.626865672" y="115.089552239"/>
      <point x="390.925373134" y="98.0"/>
      <point x="426" y="98" type="qcurve" smooth="yes"/>
      <point x="496.149253731" y="98.0"/>
      <point x="623.820895522" y="190.701492537"/>
      <point x="688" y="281" type="qcurve"/>
      <point x="813" y="229" type="line"/>
      <point x="738.373134328" y="113.328358209"/>
      <point x="539.850746269" y="-20.0"/>
      <point x="410" y="-20" type="qcurve" smooth="yes"/>
      <point x="359.253731343" y="-20.0"/>
      <point x="267.805970149" y="1.35820895522"/>
      <point x="229" y="23" type="qcurve"/>
      <point x="84" y="-195" type="line"/>
      <point x="-27" y="-195" type="line"/>
      <point x="162" y="72" type="line"/>
      <point x="114.23880597" y="119.014925373"/>
      <point x="61.0" y="258.208955224"/>
      <point x="61" y="350" type="qcurve" smooth="yes"/>
      <point x="61" y="354" type="line" smooth="yes"/>
      <point x="61.0" y="404.746268657"/>
      <point x="78.5671641791" y="523.28358209"/>
      <point x="92" y="580" type="qcurve" smooth="yes"/>
      <point x="145.731343284" y="790.447761194"/>
      <point x="409.014925373" y="1085.0"/>
      <point x="612" y="1085" type="qcurve" smooth="yes"/>
      <point x="671.701492537" y="1085.0"/>
      <point x="761.447761194" y="1063.64179104"/>
      <point x="801" y="1042" type="qcurve"/>
    </contour>
    <contour>
      <point x="256" y="193" type="qcurve"/>
      <point x="729" y="930" type="line"/>
      <point x="701.388059701" y="947.910447761"/>
      <point x="639.044776119" y="969.0"/>
      <point x="598" y="969" type="qcurve" smooth="yes"/>
      <point x="480.089552239" y="969.0"/>
      <point x="301.52238806" y="749.402985075"/>
      <point x="256" y="580" type="qcurve" smooth="yes"/>
      <point x="238.835820896" y="514.328358209"/>
      <point x="221.0" y="401.223880597"/>
      <point x="221" y="346" type="qcurve" smooth="yes"/>
      <point x="221" y="342" type="line" smooth="yes"/>
      <point x="221.0" y="296.47761194"/>
      <point x="238.835820896" y="221.358208955"/>
    </contour>
  </outline>
</glyph>
<glyph name="dieresis" format="1">
  <advance width="1024.0"/>
  <unicode hex="00A8"/>
  <outline>
    <contour>
      <point x="455" y="1409" type="line"/>
      <point x="627" y="1409" type="line"/>
      <point x="578" y="1212" type="line"/>
      <point x="406" y="1212" type="line"/>
    </contour>
    <contour>
      <point x="831" y="1409" type="line"/>
      <point x="1001" y="1409" type="line"/>
      <point x="954" y="1212" type="line"/>
      <point x="782" y="1212" type="line"/>
    </contour>
  </outline>
</glyph>
<glyph name="copyright" format="1">
  <advance width="1703.936"/>
  <unicode hex="00A9"/>
  <outline>
    <contour>
      <point x="1069" y="621" type="qcurve"/>
      <point x="1190" y="588" type="line"/>
      <point x="1162.3880597" y="462.626865672"/>
      <point x="1020.88059701" y="317.0"/>
      <point x="897" y="317" type="qcurve" smooth="yes"/>
      <point x="755.208955224" y="317.0"/>
      <point x="586.0" y="539.47761194"/>
      <point x="586" y="735" type="qcurve" smooth="yes"/>
      <point x="586" y="760" type="line" smooth="yes"/>
      <point x="586.0" y="954.029850746"/>
      <point x="754.223880597" y="1176.0"/>
      <point x="899" y="1176" type="qcurve" smooth="yes"/>
      <point x="1021.3880597" y="1176.0"/>
      <point x="1160.3880597" y="1040.14925373"/>
      <point x="1188" y="920" type="qcurve"/>
      <point x="1061" y="887" type="line"/>
      <point x="1039.35820896" y="980.28358209"/>
      <point x="964.671641791" y="1071.0"/>
      <point x="899" y="1071" type="qcurve" smooth="yes"/>
      <point x="807.208955224" y="1071.0"/>
      <point x="721.0" y="901.343283582"/>
      <point x="721" y="770" type="qcurve" smooth="yes"/>
      <point x="721" y="725" type="line" smooth="yes"/>
      <point x="721.0" y="595.149253731"/>
      <point x="807.208955224" y="424.0"/>
      <point x="899" y="424" type="qcurve" smooth="yes"/>
      <point x="969.149253731" y="424.0"/>
      <point x="1047.35820896" y="524.731343284"/>
    </contour>
    <contour>
      <point x="903" y="1499" type="qcurve" smooth="yes"/>
      <point x="1225.3880597" y="1499.0"/>
      <point x="1665.0" y="1059.3880597"/>
      <point x="1665" y="737" type="qcurve" smooth="yes"/>
      <point x="1665.0" y="416.104477612"/>
      <point x="1223.89552239" y="-25.0"/>
      <point x="903" y="-25" type="qcurve" smooth="yes"/>
      <point x="579.119402985" y="-25.0"/>
      <point x="141.0" y="414.611940299"/>
      <point x="141" y="737" type="qcurve" smooth="yes"/>
      <point x="141.0" y="1057.89552239"/>
      <point x="580.611940299" y="1499.0"/>
    </contour>
    <contour>
      <point x="903" y="43" type="qcurve" smooth="yes"/>
      <point x="1197.7761194" y="43.0"/>
      <point x="1587.0" y="442.223880597"/>
      <point x="1587" y="737" type="qcurve" smooth="yes"/>
      <point x="1587.0" y="1032.52238806"/>
      <point x="1196.28358209" y="1432.0"/>
      <point x="903" y="1432" type="qcurve" smooth="yes"/>
      <point x="608.223880597" y="1432.0"/>
      <point x="219.0" y="1032.52238806"/>
      <point x="219" y="737" type="qcurve" smooth="yes"/>
      <point x="219.0" y="442.223880597"/>
      <point x="608.223880597" y="43.0"/>
    </contour>
  </outline>
</glyph>
<glyph name="uni00AE" format="1">
  <advance width="1703.936"/>
  <unicode hex="00AE"/>
  <outline>
    <contour>
      <point x="1012" y="698" type="qcurve"/>
      <point x="1247" y="330" type="line"/>
      <point x="1098" y="330" type="line"/>
      <point x="874" y="684" type="line"/>
      <point x="774" y="684" type="line"/>
      <point x="774" y="330" type="line"/>
      <point x="641" y="330" type="line"/>
      <point x="641" y="1167" type="line"/>
      <point x="922" y="1167" type="line" smooth="yes"/>
      <point x="1053.34328358" y="1167.0"/>
      <point x="1212.0" y="1047.1641791"/>
      <point x="1212" y="930" type="qcurve" smooth="yes"/>
      <point x="1212.0" y="833.731343284"/>
      <point x="1103.79104478" y="716.656716418"/>
    </contour>
    <contour>
      <point x="903" y="1499" type="qcurve" smooth="yes"/>
      <point x="1225.3880597" y="1499.0"/>
      <point x="1665.0" y="1059.3880597"/>
      <point x="1665" y="737" type="qcurve" smooth="yes"/>
      <point x="1665.0" y="416.104477612"/>
      <point x="1223.89552239" y="-25.0"/>
      <point x="903" y="-25" type="qcurve" smooth="yes"/>
      <point x="579.119402985" y="-25.0"/>
      <point x="141.0" y="414.611940299"/>
      <point x="141" y="737" type="qcurve" smooth="yes"/>
      <point x="141.0" y="1057.89552239"/>
      <point x="580.611940299" y="1499.0"/>
    </contour>
    <contour>
      <point x="903" y="43" type="qcurve" smooth="yes"/>
      <point x="1197.7761194" y="43.0"/>
      <point x="1587.0" y="442.223880597"/>
      <point x="1587" y="737" type="qcurve" smooth="yes"/>
      <point x="1587.0" y="1032.52238806"/>
      <point x="1196.28358209" y="1432.0"/>
      <point x="903" y="1432" type="qcurve" smooth="yes"/>
      <point x="608.223880597" y="1432.0"/>
      <point x="219.0" y="1032.52238806"/>
      <point x="219" y="737" type="qcurve" smooth="yes"/>
      <point x="219.0" y="442.223880597"/>
      <point x="608.223880597" y="43.0"/>
    </contour>
    <contour>
      <point x="911" y="784" type="line" smooth="yes"/>
      <point x="990.850746269" y="784.0"/>
      <point x="1075.0" y="854.119402985"/>
      <point x="1075" y="928" type="qcurve" smooth="yes"/>
      <point x="1075.0" y="995.164179104"/>
      <point x="991.835820896" y="1065.0"/>
      <point x="909" y="1065" type="qcurve" smooth="yes"/>
      <point x="772" y="1065" type="line"/>
      <point x="772" y="784" type="line"/>
    </contour>
  </outline>
</glyph>
<glyph name="periodcentered" format="1">
  <advance width="405.504"/>
  <unicode hex="00B7"/>
  <outline>
    <contour>
      <point x="209" y="690" type="qcurve" smooth="yes"/>
      <point x="261.23880597" y="690.0"/>
      <point x="330.0" y="621.23880597"/>
      <point x="330" y="569" type="qcurve" smooth="yes"/>
      <point x="330.0" y="517.507462687"/>
      <point x="261.23880597" y="449.0"/>
      <point x="209" y="449" type="qcurve" smooth="yes"/>
      <point x="158.253731343" y="449.0"/>
      <point x="92.0" y="517.507462687"/>
      <point x="92" y="569" type="qcurve" smooth="yes"/>
      <point x="92.0" y="621.23880597"/>
      <point x="158.253731343" y="690.0"/>
    </contour>
  </outline>
</glyph>
<glyph name="guillemotright" format="1">
  <advance width="958.464"/>
  <unicode hex="00BB"/>
  <outline>
    <contour>
      <point x="266" y="909" type="line"/>
      <point x="500" y="532" type="line"/>
      <point x="86" y="156" type="line"/>
      <point x="-31" y="156" type="line"/>
      <point x="307" y="541" type="line"/>
      <point x="166" y="909" type="line"/>
    </contour>
    <contour>
      <point x="674" y="909" type="line"/>
      <point x="907" y="532" type="line"/>
      <point x="494" y="156" type="line"/>
      <point x="375" y="156" type="line"/>
      <point x="715" y="541" type="line"/>
      <point x="569" y="909" type="line"/>
    </contour>
  </outline>
</glyph>
<glyph name="questiondown" format="1">
  <advance width="931.84"/>
  <unicode hex="00BF"/>
  <outline>
    <contour>
      <point x="690" y="328" type="qcurve"/>
      <point x="815" y="250" type="line"/>
      <point x="726.194029851" y="118.656716418"/>
      <point x="501.835820896" y="-20.0"/>
      <point x="369" y="-20" type="qcurve" smooth="yes"/>
      <point x="210.044776119" y="-20.0"/>
      <point x="20.0" y="137.641791045"/>
      <point x="20" y="266" type="qcurve" smooth="yes"/>
      <point x="20.0" y="408.537313433"/>
      <point x="184.47761194" y="599.731343284"/>
      <point x="330" y="696" type="qcurve" smooth="yes"/>
      <point x="442.686567164" y="772.865671642"/>
      <point x="542.686567164" y="905.194029851"/>
      <point x="580" y="1044" type="qcurve"/>
      <point x="698" y="1044" type="line"/>
      <point x="667.402985075" y="858.179104478"/>
      <point x="555.343283582" y="683.313432836"/>
      <point x="424" y="596" type="qcurve" smooth="yes"/>
      <point x="326.23880597" y="530.328358209"/>
      <point x="203.0" y="381.776119403"/>
      <point x="203" y="287" type="qcurve" smooth="yes"/>
      <point x="203.0" y="205.656716418"/>
      <point x="309.895522388" y="125.0"/>
      <point x="389" y="125" type="qcurve" smooth="yes"/>
      <point x="473.328358209" y="125.0"/>
      <point x="616.865671642" y="220.537313433"/>
    </contour>
    <contour>
      <point x="711" y="1493" type="qcurve" smooth="yes"/>
      <point x="761.0" y="1493.0"/>
      <point x="827.0" y="1428.74626866"/>
      <point x="827" y="1378" type="qcurve" smooth="yes"/>
      <point x="827.0" y="1328.0"/>
      <point x="761.0" y="1262.0"/>
      <point x="711" y="1262" type="qcurve" smooth="yes"/>
      <point x="660.253731343" y="1262.0"/>
      <point x="594.0" y="1328.0"/>
      <point x="594" y="1378" type="qcurve" smooth="yes"/>
      <point x="594.0" y="1428.74626866"/>
      <point x="660.253731343" y="1493.0"/>
    </contour>
  </outline>
</glyph>
<glyph name="Aring" format="1">
  <advance width="1366.016"/>
  <unicode hex="00C5"/>
  <outline>
    <contour>
      <point x="963" y="1948" type="qcurve" smooth="yes"/>
      <point x="1055.53731343" y="1948.0"/>
      <point x="1174.0" y="1840.34328358"/>
      <point x="1174" y="1759" type="qcurve" smooth="yes"/>
      <point x="1174.0" y="1675.41791045"/>
      <point x="1055.53731343" y="1569.0"/>
      <point x="963" y="1569" type="qcurve" smooth="yes"/>
      <point x="868.223880597" y="1569.0"/>
      <point x="752.0" y="1675.41791045"/>
      <point x="752" y="1759" type="qcurve" smooth="yes"/>
      <point x="752.0" y="1840.34328358"/>
      <point x="868.223880597" y="1948.0"/>
    </contour>
    <contour>
      <point x="963" y="1640" type="qcurve" smooth="yes"/>
      <point x="1011.50746269" y="1640.0"/>
      <point x="1073.0" y="1707.50746269"/>
      <point x="1073" y="1759" type="qcurve" smooth="yes"/>
      <point x="1073.0" y="1809.74626866"/>
      <point x="1011.50746269" y="1874.0"/>
      <point x="963" y="1874" type="qcurve" smooth="yes"/>
      <point x="915.23880597" y="1874.0"/>
      <point x="850.0" y="1809.74626866"/>
      <point x="850" y="1759" type="qcurve" smooth="yes"/>
      <point x="850.0" y="1707.50746269"/>
      <point x="913.746268657" y="1640.0"/>
    </contour>
    <contour>
      <point x="1047" y="1483" type="line"/>
      <point x="1182" y="0" type="line"/>
      <point x="995" y="0" type="line"/>
      <point x="967" y="379" type="line"/>
      <point x="332" y="379" type="line"/>
      <point x="113" y="0" type="line"/>
      <point x="-80" y="0" type="line"/>
      <point x="793" y="1483" type="line"/>
    </contour>
    <contour>
      <point x="401" y="510" type="line"/>
      <point x="963" y="510" type="line"/>
      <point x="895" y="1335" type="line"/>
      <point x="881" y="1335" type="line"/>
    </contour>
  </outline>
</glyph>
<glyph name="germandbls" format="1">
  <advance width="1181.696"/>
  <unicode hex="00DF"/>
  <outline>
    <contour>
      <point x="791" y="1554" type="qcurve" smooth="yes"/>
      <point x="954.432835821" y="1554.0"/>
      <point x="1153.0" y="1397.34328358"/>
      <point x="1153" y="1266" type="qcurve" smooth="yes"/>
      <point x="1153.0" y="1092.86567164"/>
      <point x="926.880597015" y="893.52238806"/>
      <point x="803" y="848" type="qcurve"/>
      <point x="799" y="831" type="line"/>
      <point x="921.388059701" y="783.985074627"/>
      <point x="1081.0" y="573.044776119"/>
      <point x="1081" y="432" type="qcurve" smooth="yes"/>
      <point x="1081.0" y="219.313432836"/>
      <point x="807.328358209" y="-18.0"/>
      <point x="623" y="-18" type="qcurve" smooth="yes"/>
      <point x="528.223880597" y="-18.0"/>
      <point x="387.731343284" y="29.1940298507"/>
      <point x="334" y="68" type="qcurve"/>
      <point x="393" y="178" type="line"/>
      <point x="440.76119403" y="144.417910448"/>
      <point x="540.328358209" y="106.0"/>
      <point x="606" y="106" type="qcurve" smooth="yes"/>
      <point x="732.865671642" y="106.0"/>
      <point x="905.0" y="283.492537313"/>
      <point x="905" y="432" type="qcurve" smooth="yes"/>
      <point x="905.0" y="564.835820896"/>
      <point x="736.134328358" y="758.149253731"/>
      <point x="563" y="788" type="qcurve"/>
      <point x="592" y="901" type="line"/>
      <point x="750.955223881" y="906.970149254"/>
      <point x="975.0" y="1106.1641791"/>
      <point x="975" y="1239" type="qcurve" smooth="yes"/>
      <point x="975.0" y="1330.79104478"/>
      <point x="862.268656716" y="1432.0"/>
      <point x="766" y="1432" type="qcurve" smooth="yes"/>
      <point x="652.567164179" y="1432.0"/>
      <point x="498.074626866" y="1294.28358209"/>
      <point x="463" y="1151" type="qcurve" smooth="yes"/>
      <point x="82" y="-385" type="line"/>
      <point x="-96" y="-385" type="line"/>
      <point x="287" y="1151" type="line" smooth="yes"/>
      <point x="338.492537313" y="1359.20895522"/>
      <point x="588.76119403" y="1554.0"/>
    </contour>
  </outline>
</glyph>
<glyph name="ae" format="1">
  <advance width="1552.384"/>
  <unicode hex="00E6"/>
  <outline>
    <contour>
      <point x="1206" y="1085" type="qcurve" smooth="yes"/>
      <point x="1373.1641791" y="1085.0"/>
      <point x="1505.0" y="873.567164179"/>
      <point x="1505" y="737" type="qcurve" smooth="yes"/>
      <point x="1505.0" y="682.52238806"/>
      <point x="1485.1641791" y="555.462686567"/>
      <point x="1468" y="498" type="qcurve"/>
      <point x="842" y="498" type="line"/>
      <point x="836.029850746" y="465.910447761"/>
      <point x="831.0" y="398.582089552"/>
      <point x="831" y="365" type="qcurve" smooth="yes"/>
      <point x="831" y="360" type="line" smooth="yes"/>
      <point x="831.0" y="238.358208955"/>
      <point x="938.23880597" y="106.0"/>
      <point x="1036" y="106" type="qcurve" smooth="yes"/>
      <point x="1112.86567164" y="106.0"/>
      <point x="1255.3880597" y="169.507462687"/>
      <point x="1333" y="221" type="qcurve"/>
      <point x="1372" y="109" type="line"/>
      <point x="1284.68656716" y="49.2985074627"/>
      <point x="1117.70149254" y="-20.0"/>
      <point x="1008" y="-20" type="qcurve" smooth="yes"/>
      <point x="890.089552239" y="-20.0"/>
      <point x="727.074626866" y="93.0"/>
      <point x="692" y="193" type="qcurve"/>
      <point x="680" y="193" type="line"/>
      <point x="548.656716418" y="75.0895522388"/>
      <point x="353.223880597" y="-16.0"/>
      <point x="248" y="-16" type="qcurve" smooth="yes"/>
      <point x="145.76119403" y="-16.0"/>
      <point x="10.0" y="102.791044776"/>
      <point x="10" y="211" type="qcurve" smooth="yes"/>
      <point x="10.0" y="390.104477612"/>
      <point x="347.298507463" y="627.507462687"/>
      <point x="707" y="629" type="qcurve"/>
      <point x="733" y="731" type="line" smooth="yes"/>
      <point x="738.970149254" y="755.626865672"/>
      <point x="743.0" y="801.089552239"/>
      <point x="743" y="819" type="qcurve" smooth="yes"/>
      <point x="743.0" y="886.164179104"/>
      <point x="660.820895522" y="950.0"/>
      <point x="575" y="950" type="qcurve" smooth="yes"/>
      <point x="500.373134328" y="950.0"/>
      <point x="371.492537313" y="915.28358209"/>
      <point x="270" y="872" type="qcurve"/>
      <point x="244" y="987" type="line"/>
      <point x="346.23880597" y="1031.7761194"/>
      <point x="512.23880597" y="1077.0"/>
      <point x="610" y="1077" type="qcurve" smooth="yes"/>
      <point x="733.880597015" y="1077.0"/>
      <point x="853.552238806" y="987.776119403"/>
      <point x="864" y="893" type="qcurve"/>
      <point x="874" y="893" type="line"/>
      <point x="941.910447761" y="980.313432836"/>
      <point x="1109.73134328" y="1085.0"/>
    </contour>
    <contour>
      <point x="664" y="354" type="line" smooth="yes"/>
      <point x="664.0" y="401.76119403"/>
      <point x="676.059701493" y="501.23880597"/>
      <point x="688" y="549" type="qcurve"/>
      <point x="405.164179104" y="547.507462687"/>
      <point x="182.0" y="358.686567164"/>
      <point x="182" y="246" type="qcurve" smooth="yes"/>
      <point x="182.0" y="175.850746269"/>
      <point x="267.343283582" y="98.0"/>
      <point x="336" y="98" type="qcurve" smooth="yes"/>
      <point x="397.194029851" y="98.0"/>
      <point x="550.089552239" y="171.567164179"/>
      <point x="668" y="285" type="qcurve"/>
      <point x="666.507462687" y="298.432835821"/>
      <point x="664.0" y="333.582089552"/>
      <point x="664" y="350" type="qcurve" smooth="yes"/>
    </contour>
    <contour>
      <point x="1323" y="588" type="line"/>
      <point x="1333.44776119" y="632.029850746"/>
      <point x="1343.0" y="707.417910448"/>
      <point x="1343" y="741" type="qcurve" smooth="yes"/>
      <point x="1343.0" y="837.268656716"/>
      <point x="1278.80597015" y="975.0"/>
      <point x="1190" y="975" type="qcurve" smooth="yes"/>
      <point x="1086.26865672" y="975.0"/>
      <point x="901.044776119" y="752.925373134"/>
      <point x="860" y="588" type="qcurve"/>
    </contour>
  </outline>
</glyph>
<glyph name="eth" format="1">
  <advance width="1028.096"/>
  <unicode hex="00F0"/>
  <outline>
    <contour>
      <point x="854" y="1444" type="qcurve"/>
      <point x="1108" y="1561" type="line"/>
      <point x="1085" y="1468" type="line"/>
      <point x="895" y="1380" type="line"/>
      <point x="944.253731343" y="1285.2238806"/>
      <point x="995.0" y="1073.68656716"/>
      <point x="995" y="961" type="qcurve" smooth="yes"/>
      <point x="995" y="954" type="line" smooth="yes"/>
      <point x="995.0" y="860.71641791"/>
      <point x="963.582089552" y="655.343283582"/>
      <point x="930" y="524" type="qcurve" smooth="yes"/>
      <point x="861.343283582" y="250.865671642"/>
      <point x="580.611940299" y="-20.0"/>
      <point x="403" y="-20" type="qcurve" smooth="yes"/>
      <point x="250.76119403" y="-20.0"/>
      <point x="61.0" y="167.910447761"/>
      <point x="61" y="350" type="qcurve" smooth="yes"/>
      <point x="61" y="354" type="line" smooth="yes"/>
      <point x="61.0" y="403.253731343"/>
      <point x="76.5671641791" y="516.52238806"/>
      <point x="90" y="571" type="qcurve" smooth="yes"/>
      <point x="142.23880597" y="785.179104478"/>
      <point x="397.402985075" y="1079.0"/>
      <point x="578" y="1079" type="qcurve" smooth="yes"/>
      <point x="690.686567164" y="1079.0"/>
      <point x="820.865671642" y="939.447761194"/>
      <point x="844" y="829" type="qcurve"/>
      <point x="856" y="829" type="line"/>
      <point x="869.432835821" y="977.507462687"/>
      <point x="818.71641791" y="1223.26865672"/>
      <point x="762" y="1327" type="qcurve"/>
      <point x="489" y="1200" type="line"/>
      <point x="514" y="1292" type="line"/>
      <point x="717" y="1391" type="line"/>
      <point x="695.358208955" y="1423.08955224"/>
      <point x="643.104477612" y="1484.13432836"/>
      <point x="614" y="1511" type="qcurve"/>
      <point x="774" y="1561" type="line"/>
      <point x="795.641791045" y="1531.89552239"/>
      <point x="835.343283582" y="1473.10447761"/>
    </contour>
    <contour>
      <point x="741" y="489" type="qcurve" smooth="yes"/>
      <point x="758.164179104" y="558.402985075"/>
      <point x="776.0" y="674.76119403"/>
      <point x="776" y="727" type="qcurve" smooth="yes"/>
      <point x="776" y="731" type="line" smooth="yes"/>
      <point x="776.0" y="853.388059701"/>
      <point x="680.835820896" y="971.0"/>
      <point x="598" y="971" type="qcurve" smooth="yes"/>
      <point x="478.597014925" y="971.0"/>
      <point x="313.28358209" y="742.164179104"/>
      <point x="270" y="575" type="qcurve" smooth="yes"/>
      <point x="253.582089552" y="507.835820896"/>
      <point x="236.0" y="392.23880597"/>
      <point x="236" y="340" type="qcurve" smooth="yes"/>
      <point x="236" y="336" type="line" smooth="yes"/>
      <point x="236.0" y="213.611940299"/>
      <point x="330.656716418" y="94.0"/>
      <point x="412" y="94" type="qcurve" smooth="yes"/>
      <point x="532.149253731" y="94.0"/>
      <point x="699.955223881" y="324.074626866"/>
    </contour>
  </outline>
</glyph>
<glyph name="divide" format="1">
  <advance width="1228.8"/>
  <unicode hex="00F7"/>
  <outline>
    <contour>
      <point x="664" y="418" type="qcurve" smooth="yes"/>
      <point x="714.0" y="418.0"/>
      <point x="782.0" y="351.746268657"/>
      <point x="782" y="301" type="qcurve" smooth="yes"/>
      <point x="782.0" y="248.76119403"/>
      <point x="714.0" y="180.0"/>
      <point x="664" y="180" type="qcurve" smooth="yes"/>
      <point x="611.76119403" y="180.0"/>
      <point x="545.0" y="248.76119403"/>
      <point x="545" y="301" type="qcurve" smooth="yes"/>
      <point x="545.0" y="351.746268657"/>
      <point x="611.76119403" y="418.0"/>
    </contour>
    <contour>
      <point x="664" y="1274" type="qcurve" smooth="yes"/>
      <point x="714.0" y="1274.0"/>
      <point x="782.0" y="1205.23880597"/>
      <point x="782" y="1153" type="qcurve" smooth="yes"/>
      <point x="782.0" y="1102.25373134"/>
      <point x="714.0" y="1036.0"/>
      <point x="664" y="1036" type="qcurve" smooth="yes"/>
      <point x="611.76119403" y="1036.0"/>
      <point x="545.0" y="1102.25373134"/>
      <point x="545" y="1153" type="qcurve" smooth="yes"/>
      <point x="545.0" y="1205.23880597"/>
      <point x="611.76119403" y="1274.0"/>
    </contour>
    <contour>
      <point x="1188" y="803" type="line"/>
      <point x="1188" y="651" type="line"/>
      <point x="139" y="651" type="line"/>
      <point x="139" y="803" type="line"/>
    </contour>
  </outline>
</glyph>
<glyph name="oslash" format="1">
  <advance width="1009.664"/>
  <unicode hex="00F8"/>
  <outline>
    <contour>
      <point x="999" y="1260" type="line"/>
      <point x="1112" y="1260" type="line"/>
      <point x="881" y="961" type="line"/>
      <point x="914.582089552" y="916.223880597"/>
      <point x="948.0" y="792.611940299"/>
      <point x="948" y="715" type="qcurve" smooth="yes"/>
      <point x="948" y="711" type="line" smooth="yes"/>
      <point x="948.0" y="661.746268657"/>
      <point x="935.432835821" y="548.47761194"/>
      <point x="922" y="494" type="qcurve" smooth="yes"/>
      <point x="869.76119403" y="279.820895522"/>
      <point x="603.746268657" y="-20.0"/>
      <point x="403" y="-20" type="qcurve" smooth="yes"/>
      <point x="338.820895522" y="-20.0"/>
      <point x="230.776119403" y="12.9104477612"/>
      <point x="186" y="45" type="qcurve"/>
      <point x="10" y="-195" type="line"/>
      <point x="-100" y="-195" type="line"/>
      <point x="129" y="104" type="line"/>
      <point x="96.9104477612" y="148.776119403"/>
      <point x="61.0" y="272.388059701"/>
      <point x="61" y="350" type="qcurve" smooth="yes"/>
      <point x="61" y="354" type="line" smooth="yes"/>
      <point x="61.0" y="403.253731343"/>
      <point x="76.5671641791" y="516.52238806"/>
      <point x="90" y="571" type="qcurve" smooth="yes"/>
      <point x="142.23880597" y="785.179104478"/>
      <point x="407.492537313" y="1085.0"/>
      <point x="606" y="1085" type="qcurve" smooth="yes"/>
      <point x="670.179104478" y="1085.0"/>
      <point x="778.462686567" y="1052.08955224"/>
      <point x="821" y="1020" type="qcurve"/>
    </contour>
    <contour>
      <point x="752" y="473" type="qcurve" smooth="yes"/>
      <point x="769.910447761" y="540.164179104"/>
      <point x="788.0" y="665.776119403"/>
      <point x="788" y="721" type="qcurve" smooth="yes"/>
      <point x="788" y="725" type="line" smooth="yes"/>
      <point x="788.0" y="757.089552239"/>
      <point x="781.462686567" y="813.373134328"/>
      <point x="774" y="838" type="qcurve"/>
      <point x="270" y="156" type="line"/>
      <point x="293.134328358" y="123.910447761"/>
      <point x="365.223880597" y="90.0"/>
      <point x="410" y="90" type="qcurve" smooth="yes"/>
      <point x="535.373134328" y="90.0"/>
      <point x="708.71641791" y="311.059701493"/>
    </contour>
    <contour>
      <point x="236" y="231" type="qcurve"/>
      <point x="741" y="911" type="line"/>
      <point x="717.119402985" y="943.089552239"/>
      <point x="644.029850746" y="977.0"/>
      <point x="600" y="977" type="qcurve" smooth="yes"/>
      <point x="476.119402985" y="977.0"/>
      <point x="301.044776119" y="754.447761194"/>
      <point x="260" y="594" type="qcurve" smooth="yes"/>
      <point x="242.089552239" y="526.835820896"/>
      <point x="223.0" y="399.223880597"/>
      <point x="223" y="344" type="qcurve" smooth="yes"/>
      <point x="223" y="340" type="line" smooth="yes"/>
      <point x="223.0" y="307.910447761"/>
      <point x="229.28358209" y="254.134328358"/>
    </contour>
  </outline>
</glyph>
<glyph name="Lslash" format="1">
  <advance width="1120.256"/>
  <unicode hex="0141"/>
  <outline>
    <contour>
      <point x="326" y="158" type="line"/>
      <point x="991" y="158" type="line"/>
      <point x="950" y="0" type="line"/>
      <point x="100" y="0" type="line"/>
      <point x="262" y="649" type="line"/>
      <point x="61" y="567" type="line"/>
      <point x="102" y="725" type="line"/>
      <point x="301" y="807" type="line"/>
      <point x="467" y="1475" type="line"/>
      <point x="653" y="1475" type="line"/>
      <point x="508" y="885" type="line"/>
      <point x="834" y="1018" type="line"/>
      <point x="795" y="860" type="line"/>
      <point x="469" y="729" type="line"/>
    </contour>
  </outline>
</glyph>
<glyph name="OE" format="1">
  <advance width="1820.672"/>
  <unicode hex="0152"/>
  <outline>
    <contour>
      <point x="967" y="1475" type="qcurve" smooth="yes"/>
      <point x="1956" y="1475" type="line"/>
      <point x="1919" y="1325" type="line"/>
      <point x="1272" y="1325" type="line"/>
      <point x="1149" y="840" type="line"/>
      <point x="1669" y="840" type="line"/>
      <point x="1636" y="698" type="line"/>
      <point x="1114" y="698" type="line"/>
      <point x="979" y="150" type="line"/>
      <point x="1651" y="150" type="line"/>
      <point x="1614" y="0" type="line"/>
      <point x="668" y="0" type="line" smooth="yes"/>
      <point x="426.208955224" y="0.0"/>
      <point x="123.0" y="253.313432836"/>
      <point x="123" y="516" type="qcurve" smooth="yes"/>
      <point x="123" y="522" type="line" smooth="yes"/>
      <point x="123.0" y="586.179104478"/>
      <point x="136.328358209" y="704.328358209"/>
      <point x="152" y="770" type="qcurve" smooth="yes"/>
      <point x="229.611940299" y="1109.55223881"/>
      <point x="667.0" y="1475.0"/>
    </contour>
    <contour>
      <point x="795" y="147" type="line"/>
      <point x="1087" y="1327" type="line"/>
      <point x="954" y="1327" type="line" smooth="yes"/>
      <point x="743.552238806" y="1327.0"/>
      <point x="418.656716418" y="1049.94029851"/>
      <point x="350" y="788" type="qcurve" smooth="yes"/>
      <point x="335.074626866" y="730.537313433"/>
      <point x="317.0" y="594.686567164"/>
      <point x="317" y="532" type="qcurve" smooth="yes"/>
      <point x="317" y="526" type="line" smooth="yes"/>
      <point x="317.0" y="337.940298507"/>
      <point x="523.582089552" y="147.0"/>
      <point x="690" y="147" type="qcurve" smooth="yes"/>
    </contour>
  </outline>
</glyph>
<glyph name="ring" format="1">
  <advance width="1024.0"/>
  <unicode hex="02DA"/>
  <outline>
    <contour>
      <point x="719" y="1577" type="qcurve" smooth="yes"/>
      <point x="812.28358209" y="1577.0"/>
      <point x="930.0" y="1469.59701493"/>
      <point x="930" y="1389" type="qcurve" smooth="yes"/>
      <point x="930.0" y="1304.67164179"/>
      <point x="812.28358209" y="1198.0"/>
      <point x="719" y="1198" type="qcurve" smooth="yes"/>
      <point x="624.223880597" y="1198.0"/>
      <point x="508.0" y="1304.67164179"/>
      <point x="508" y="1389" type="qcurve" smooth="yes"/>
      <point x="508.0" y="1469.59701493"/>
      <point x="624.223880597" y="1577.0"/>
    </contour>
    <contour>
      <point x="719" y="1270" type="qcurve" smooth="yes"/>
      <point x="767.507462687" y="1270.0"/>
      <point x="829.0" y="1336.76119403"/>
      <point x="829" y="1389" type="qcurve" smooth="yes"/>
      <point x="829.0" y="1439.0"/>
      <point x="767.507462687" y="1503.0"/>
      <point x="719" y="1503" type="qcurve" smooth="yes"/>
      <point x="671.23880597" y="1503.0"/>
      <point x="606.0" y="1439.0"/>
      <point x="606" y="1389" type="qcurve" smooth="yes"/>
      <point x="606.0" y="1336.76119403"/>
      <point x="669.746268657" y="1270.0"/>
    </contour>
  </outline>
</glyph>
<glyph name="ogonek" format="1">
  <advance width="1024.0"/>
  <unicode hex="02DB"/>
  <outline>
    <contour>
      <point x="547" y="-262" type="qcurve"/>
      <point x="559" y="-317" type="line"/>
      <point x="488.850746269" y="-352.820895522"/>
      <point x="355.71641791" y="-389.0"/>
      <point x="299" y="-389" type="qcurve" smooth="yes"/>
      <point x="208.701492537" y="-389.0"/>
      <point x="109.0" y="-317.194029851"/>
      <point x="109" y="-256" type="qcurve" smooth="yes"/>
      <point x="109.0" y="-197.791044776"/>
      <point x="227.641791045" y="-64.1791044776"/>
      <point x="356" y="0" type="qcurve"/>
      <point x="455" y="0" type="line"/>
      <point x="344.552238806" y="-67.1641791045"/>
      <point x="252.0" y="-185.955223881"/>
      <point x="252" y="-227" type="qcurve" smooth="yes"/>
      <point x="252.0" y="-262.074626866"/>
      <point x="309.492537313" y="-305.0"/>
      <point x="358" y="-305" type="qcurve" smooth="yes"/>
      <point x="404.268656716" y="-305.0"/>
      <point x="490.28358209" y="-283.641791045"/>
    </contour>
  </outline>
</glyph>
<glyph name="tilde" format="1">
  <advance width="1024.0"/>
  <unicode hex="02DC"/>
  <outline>
    <contour>
      <point x="971" y="1454" type="qcurve"/>
      <point x="1063" y="1454" type="line"/>
      <point x="1041.35820896" y="1330.11940299"/>
      <point x="935.791044776" y="1214.0"/>
      <point x="844" y="1214" type="qcurve" smooth="yes"/>
      <point x="749.223880597" y="1214.0"/>
      <point x="618.701492537" y="1331.0"/>
      <point x="559" y="1331" type="qcurve" smooth="yes"/>
      <point x="516.462686567" y="1331.0"/>
      <point x="465.925373134" y="1274.97014925"/>
      <point x="451" y="1219" type="qcurve"/>
      <point x="358" y="1219" type="line"/>
      <point x="381.134328358" y="1339.14925373"/>
      <point x="486.208955224" y="1458.0"/>
      <point x="578" y="1458" type="qcurve" smooth="yes"/>
      <point x="672.776119403" y="1458.0"/>
      <point x="802.298507463" y="1341.0"/>
      <point x="862" y="1341" type="qcurve" smooth="yes"/>
      <point x="905.28358209" y="1341.0"/>
      <point x="955.328358209" y="1395.79104478"/>
    </contour>
  </outline>
</glyph>
<glyph name="hungarumlaut" format="1">
  <advance width="1024.0"/>
  <unicode hex="02DD"/>
  <outline>
    <contour>
      <point x="547" y="1522" type="line"/>
      <point x="766" y="1522" type="line"/>
      <point x="416" y="1212" type="line"/>
      <point x="301" y="1212" type="line"/>
    </contour>
    <contour>
      <point x="920" y="1522" type="line"/>
      <point x="1141" y="1522" type="line"/>
      <point x="786" y="1212" type="line"/>
      <point x="674" y="1212" type="line"/>
    </contour>
  </outline>
</glyph>
<glyph name="quoteleft" format="1">
  <advance width="405.504"/>
  <unicode hex="2018"/>
  <unicode hex="02BB"/>
  <outline>
    <contour>
      <point x="297" y="1475" type="line"/>
      <point x="489" y="1475" type="line"/>
      <point x="451" y="1001" type="line"/>
      <point x="348" y="1001" type="line"/>
    </contour>
  </outline>
</glyph>
<glyph name="quoteright" format="1">
  <advance width="405.504"/>
  <unicode hex="2019"/>
  <unicode hex="02BC"/>
  <outline>
    <contour>
      <point x="381" y="1475" type="line"/>
      <point x="594" y="1475" type="line"/>
      <point x="309" y="1001" type="line"/>
      <point x="195" y="1001" type="line"/>
    </contour>
  </outline>
</glyph>
<glyph name="quotedblleft" format="1">
  <advance width="737.28"/>
  <unicode hex="201C"/>
  <outline>
    <contour>
      <point x="297" y="1475" type="line"/>
      <point x="487" y="1475" type="line"/>
      <point x="446" y="1001" type="line"/>
      <point x="348" y="1001" type="line"/>
    </contour>
    <contour>
      <point x="623" y="1475" type="line"/>
      <point x="815" y="1475" type="line"/>
      <point x="774" y="1001" type="line"/>
      <point x="676" y="1001" type="line"/>
    </contour>
  </outline>
</glyph>
<glyph name="perthousand" format="1">
  <advance width="2551.808"/>
  <unicode hex="2030"/>
  <outline>
    <contour>
      <point x="588" y="1489" type="qcurve" smooth="yes"/>
      <point x="703.671641791" y="1489.0"/>
      <point x="879.0" y="1338.47761194"/>
      <point x="879" y="1184" type="qcurve" smooth="yes"/>
      <point x="879.0" y="1007.88059701"/>
      <point x="654.074626866" y="682.0"/>
      <point x="469" y="682" type="qcurve" smooth="yes"/>
      <point x="352.582089552" y="682.0"/>
      <point x="178.0" y="836.014925373"/>
      <point x="178" y="989" type="qcurve" smooth="yes"/>
      <point x="178.0" y="1165.11940299"/>
      <point x="402.925373134" y="1489.0"/>
    </contour>
    <contour>
      <point x="475" y="795" type="qcurve" smooth="yes"/>
      <point x="598.880597015" y="795.0"/>
      <point x="739.0" y="1057.6119403"/>
      <point x="739" y="1180" type="qcurve" smooth="yes"/>
      <point x="739.0" y="1269.55223881"/>
      <point x="653.641791045" y="1376.0"/>
      <point x="582" y="1376" type="qcurve" smooth="yes"/>
      <point x="458.119402985" y="1376.0"/>
      <point x="319.0" y="1113.89552239"/>
      <point x="319" y="993" type="qcurve" smooth="yes"/>
      <point x="319.0" y="902.701492537"/>
      <point x="401.865671642" y="795.0"/>
    </contour>
    <contour>
      <point x="1380" y="793" type="qcurve" smooth="yes"/>
      <point x="1497.91044776" y="793.0"/>
      <point x="1673.0" y="637.985074627"/>
      <point x="1673" y="485" type="qcurve" smooth="yes"/>
      <point x="1673.0" y="309.626865672"/>
      <point x="1447.82089552" y="-14.0"/>
      <point x="1262" y="-14" type="qcurve" smooth="yes"/>
      <point x="1145.58208955" y="-14.0"/>
      <point x="971.0" y="138.014925373"/>
      <point x="971" y="291" type="qcurve" smooth="yes"/>
      <point x="971.0" y="467.865671642"/>
      <point x="1195.67164179" y="793.0"/>
    </contour>
    <contour>
      <point x="1268" y="98" type="qcurve" smooth="yes"/>
      <point x="1391.88059701" y="98.0"/>
      <point x="1532.0" y="360.104477612"/>
      <point x="1532" y="481" type="qcurve" smooth="yes"/>
      <point x="1532.0" y="571.298507463"/>
      <point x="1448.3880597" y="680.0"/>
      <point x="1376" y="680" type="qcurve" smooth="yes"/>
      <point x="1252.11940299" y="680.0"/>
      <point x="1114.0" y="417.388059701"/>
      <point x="1114" y="295" type="qcurve" smooth="yes"/>
      <point x="1114.0" y="204.701492537"/>
      <point x="1195.6119403" y="98.0"/>
    </contour>
    <contour>
      <point x="2181" y="793" type="qcurve" smooth="yes"/>
      <point x="2298.91044776" y="793.0"/>
      <point x="2474.0" y="637.985074627"/>
      <point x="2474" y="485" type="qcurve" smooth="yes"/>
      <point x="2474.0" y="309.626865672"/>
      <point x="2249.07462687" y="-14.0"/>
      <point x="2064" y="-14" type="qcurve" smooth="yes"/>
      <point x="1946.8358209" y="-14.0"/>
      <point x="1772.0" y="138.014925373"/>
      <point x="1772" y="291" type="qcurve" smooth="yes"/>
      <point x="1772.0" y="467.865671642"/>
      <point x="1995.92537313" y="793.0"/>
    </contour>
    <contour>
      <point x="2071" y="98" type="qcurve" smooth="yes"/>
      <point x="2192.64179104" y="98.0"/>
      <point x="2333.0" y="360.104477612"/>
      <point x="2333" y="481" type="qcurve" smooth="yes"/>
      <point x="2333.0" y="571.298507463"/>
      <point x="2248.64179104" y="680.0"/>
      <point x="2177" y="680" type="qcurve" smooth="yes"/>
      <point x="2053.11940299" y="680.0"/>
      <point x="1913.0" y="417.388059701"/>
      <point x="1913" y="295" type="qcurve" smooth="yes"/>
      <point x="1913.0" y="204.701492537"/>
      <point x="1998.6119403" y="98.0"/>
    </contour>
    <contour>
      <point x="1477" y="1475" type="line"/>
      <point x="1645" y="1475" type="line"/>
      <point x="969" y="717" type="line"/>
      <point x="373" y="0" type="line"/>
      <point x="207" y="0" type="line"/>
      <point x="883" y="758" type="line"/>
    </contour>
  </outline>
</glyph>
<glyph name="guilsinglleft" format="1">
  <advance width="552.96"/>
  <unicode hex="2039"/>
  <outline>
    <contour>
      <point x="467" y="909" type="line"/>
      <point x="584" y="909" type="line"/>
      <point x="246" y="524" type="line"/>
      <point x="389" y="156" type="line"/>
      <point x="287" y="156" type="line"/>
      <point x="53" y="532" type="line"/>
    </contour>
  </outline>
</glyph>
<glyph name="fraction" format="1">
  <advance width="772.096"/>
  <unicode hex="2044"/>
  <outline>
    <contour>
      <point x="903" y="1505" type="line"/>
      <point x="1077" y="1505" type="line"/>
      <point x="-31" y="-31" type="line"/>
      <point x="-203" y="-31" type="line"/>
    </contour>
  </outline>
</glyph>
<glyph name="Euro" format="1">
  <advance width="1193.984"/>
  <unicode hex="20AC"/>
  <outline>
    <contour>
      <point x="825" y="1499" type="qcurve" smooth="yes"/>
      <point x="1016.04477612" y="1499.0"/>
      <point x="1216.37313433" y="1287.55223881"/>
      <point x="1241" y="1098" type="qcurve"/>
      <point x="1092" y="1024" type="line"/>
      <point x="1074.8358209" y="1187.43283582"/>
      <point x="945.358208955" y="1362.0"/>
      <point x="817" y="1362" type="qcurve" smooth="yes"/>
      <point x="672.223880597" y="1362.0"/>
      <point x="449.179104478" y="1114.59701493"/>
      <point x="385" y="934" type="qcurve"/>
      <point x="844" y="934" type="line"/>
      <point x="817" y="834" type="line"/>
      <point x="352" y="834" type="line"/>
      <point x="337.074626866" y="778.776119403"/>
      <point x="314.970149254" y="671.0"/>
      <point x="309" y="621" type="qcurve"/>
      <point x="764" y="621" type="line"/>
      <point x="741" y="520" type="line"/>
      <point x="299" y="520" type="line"/>
      <point x="297.507462687" y="508.059701493"/>
      <point x="297.0" y="485.447761194"/>
      <point x="297" y="475" type="qcurve" smooth="yes"/>
      <point x="297" y="469" type="line" smooth="yes"/>
      <point x="297.0" y="320.492537313"/>
      <point x="427.208955224" y="113.0"/>
      <point x="569" y="113" type="qcurve" smooth="yes"/>
      <point x="688.402985075" y="113.0"/>
      <point x="878.671641791" y="274.47761194"/>
      <point x="963" y="420" type="qcurve"/>
      <point x="1071" y="328" type="line"/>
      <point x="968.76119403" y="157.850746269"/>
      <point x="711.447761194" y="-25.0"/>
      <point x="551" y="-25" type="qcurve" smooth="yes"/>
      <point x="341.298507463" y="-25.0"/>
      <point x="119.0" y="241.388059701"/>
      <point x="119" y="469" type="qcurve" smooth="yes"/>
      <point x="119" y="475" type="line" smooth="yes"/>
      <point x="119.0" y="542.164179104"/>
      <point x="134.835820896" y="687.373134328"/>
      <point x="152" y="762" type="qcurve" smooth="yes"/>
      <point x="220.656716418" y="1069.46268657"/>
      <point x="566.791044776" y="1499.0"/>
    </contour>
  </outline>
</glyph>
<glyph name="uni2117" format="1">
  <advance width="1703.936"/>
  <unicode hex="2117"/>
  <outline>
    <contour>
      <point x="903" y="1499" type="qcurve" smooth="yes"/>
      <point x="1225.3880597" y="1499.0"/>
      <point x="1665.0" y="1059.3880597"/>
      <point x="1665" y="737" type="qcurve" smooth="yes"/>
      <point x="1665.0" y="416.104477612"/>
      <point x="1223.89552239" y="-25.0"/>
      <point x="903" y="-25" type="qcurve" smooth="yes"/>
      <point x="579.119402985" y="-25.0"/>
      <point x="141.0" y="414.611940299"/>
      <point x="141" y="737" type="qcurve" smooth="yes"/>
      <point x="141.0" y="1057.89552239"/>
      <point x="580.611940299" y="1499.0"/>
    </contour>
    <contour>
      <point x="903" y="43" type="qcurve" smooth="yes"/>
      <point x="1197.7761194" y="43.0"/>
      <point x="1587.0" y="442.223880597"/>
      <point x="1587" y="737" type="qcurve" smooth="yes"/>
      <point x="1587.0" y="1032.52238806"/>
      <point x="1196.28358209" y="1432.0"/>
      <point x="903" y="1432" type="qcurve" smooth="yes"/>
      <point x="608.223880597" y="1432.0"/>
      <point x="219.0" y="1032.52238806"/>
      <point x="219" y="737" type="qcurve" smooth="yes"/>
      <point x="219.0" y="442.223880597"/>
      <point x="608.223880597" y="43.0"/>
    </contour>
    <contour>
      <point x="944" y="1161" type="line" smooth="yes"/>
      <point x="1078.32835821" y="1161.0"/>
      <point x="1235.0" y="1030.91044776"/>
      <point x="1235" y="913" type="qcurve" smooth="yes"/>
      <point x="1235.0" y="792.850746269"/>
      <point x="1077.28358209" y="659.0"/>
      <point x="934" y="659" type="qcurve" smooth="yes"/>
      <point x="809" y="659" type="line"/>
      <point x="809" y="322" type="line"/>
      <point x="674" y="322" type="line"/>
      <point x="674" y="1161" type="line"/>
    </contour>
    <contour>
      <point x="936" y="762" type="line" smooth="yes"/>
      <point x="1015.10447761" y="762.0"/>
      <point x="1100.0" y="837.865671642"/>
      <point x="1100" y="911" type="qcurve" smooth="yes"/>
      <point x="1100.0" y="980.402985075"/>
      <point x="1013.58208955" y="1057.0"/>
      <point x="930" y="1057" type="qcurve" smooth="yes"/>
      <point x="807" y="1057" type="line"/>
      <point x="807" y="762" type="line"/>
    </contour>
  </outline>
</glyph>
<glyph name="radical" format="1">
  <advance width="1171.456"/>
  <unicode hex="221A"/>
  <outline>
    <contour>
      <point x="1130" y="1475" type="line"/>
      <point x="1331" y="1475" type="line"/>
      <point x="483" y="-6" type="line"/>
      <point x="295" y="-6" type="line"/>
      <point x="123" y="696" type="line"/>
      <point x="303" y="696" type="line"/>
      <point x="418" y="150" type="line"/>
    </contour>
  </outline>
</glyph>
<glyph name="apple" format="1">
  <advance width="1024.0"/>
  <unicode hex="F8FF"/>
  <outline>
    <contour>
      <point x="1081" y="1243" type="line"/>
      <point x="1096" y="1075" type="line"/>
      <point x="698" y="1034" type="line"/>
      <point x="905" y="719" type="line"/>
      <point x="905" y="711" type="line"/>
      <point x="549" y="434" type="line"/>
      <point x="907" y="338" type="line"/>
      <point x="809" y="172" type="line"/>
      <point x="506" y="375" type="line"/>
      <point x="465" y="0" type="line"/>
      <point x="283" y="0" type="line"/>
      <point x="438" y="377" type="line"/>
      <point x="43" y="231" type="line"/>
      <point x="31" y="399" type="line"/>
      <point x="426" y="440" type="line"/>
      <point x="221" y="756" type="line"/>
      <point x="221" y="764" type="line"/>
      <point x="578" y="1040" type="line"/>
      <point x="219" y="1137" type="line"/>
      <point x="315" y="1303" type="line"/>
      <point x="621" y="1100" type="line"/>
      <point x="659" y="1475" type="line"/>
      <point x="842" y="1475" type="line"/>
      <point x="686" y="1098" type="line"/>
    </contour>
    <contour>
      <point x="494" y="463" type="line"/>
      <point x="737" y="723" type="line"/>
      <point x="633" y="1012" type="line"/>
      <point x="389" y="752" type="line"/>
    </contour>
  </outline>
</glyph>
<glyph name="fl" format="1">
  <advance width="1171.456"/>
  <unicode hex="FB02"/>
  <outline>
    <contour>
      <point x="760" y="1554" type="qcurve" smooth="yes"/>
      <point x="819.701492537" y="1554.0"/>
      <point x="921.432835821" y="1532.92537313"/>
      <point x="958" y="1518" type="qcurve"/>
      <point x="926" y="1389" type="line"/>
      <point x="896.895522388" y="1403.92537313"/>
      <point x="820.23880597" y="1430.0"/>
      <point x="768" y="1430" type="qcurve" smooth="yes"/>
      <point x="703.820895522" y="1430.0"/>
      <point x="615.134328358" y="1351.04477612"/>
      <point x="592" y="1260" type="qcurve" smooth="yes"/>
      <point x="541" y="1057" type="line"/>
      <point x="805" y="1057" type="line"/>
      <point x="772" y="934" type="line"/>
      <point x="510" y="934" type="line"/>
      <point x="184" y="-385" type="line"/>
      <point x="8" y="-385" type="line"/>
      <point x="338" y="934" type="line"/>
      <point x="131" y="934" type="line"/>
      <point x="162" y="1057" type="line"/>
      <point x="369" y="1057" type="line"/>
      <point x="422" y="1276" type="line" smooth="yes"/>
      <point x="458.567164179" y="1424.50746269"/>
      <point x="624.179104478" y="1554.0"/>
    </contour>
    <contour>
      <point x="1085" y="1509" type="line"/>
      <point x="1274" y="1556" type="line"/>
      <point x="889" y="0" type="line"/>
      <point x="711" y="0" type="line"/>
    </contour>
  </outline>
</glyph>
<glyph name="I.salt" format="1">
  <advance width="540.672"/>
  <outline>
    <contour>
      <point x="410" y="1475" type="line"/>
      <point x="600" y="1475" type="line"/>
      <point x="231" y="0" type="line"/>
      <point x="43" y="0" type="line"/>
    </contour>
  </outline>
</glyph>
<glyph name="a.salt" format="1">
  <advance width="1007.616"/>
  <outline>
    <contour>
      <point x="625" y="1077" type="qcurve" smooth="yes"/>
      <point x="775.746268657" y="1077.0"/>
      <point x="922.0" y="963.223880597"/>
      <point x="922" y="858" type="qcurve" smooth="yes"/>
      <point x="922.0" y="828.895522388"/>
      <point x="914.701492537" y="765.059701493"/>
      <point x="905" y="727" type="qcurve" smooth="yes"/>
      <point x="776" y="215" type="line" smooth="yes"/>
      <point x="773.014925373" y="201.567164179"/>
      <point x="768.0" y="167.940298507"/>
      <point x="768" y="156" type="qcurve" smooth="yes"/>
      <point x="768.0" y="120.925373134"/>
      <point x="807.970149254" y="75.9701492537"/>
      <point x="852" y="70" type="qcurve"/>
      <point x="831" y="-10" type="line"/>
      <point x="712.343283582" y="-4.02985074627"/>
      <point x="603.014925373" y="92.3880597015"/>
      <point x="606" y="170" type="qcurve"/>
      <point x="592" y="170" type="line"/>
      <point x="489.76119403" y="73.7313432836"/>
      <point x="332.059701493" y="-16.0"/>
      <point x="244" y="-16" type="qcurve" smooth="yes"/>
      <point x="143.253731343" y="-16.0"/>
      <point x="10.0" y="100.552238806"/>
      <point x="10" y="211" type="qcurve" smooth="yes"/>
      <point x="10.0" y="391.597014925"/>
      <point x="346.820895522" y="627.507462687"/>
      <point x="711" y="629" type="qcurve"/>
      <point x="737" y="731" type="line" smooth="yes"/>
      <point x="742.970149254" y="755.626865672"/>
      <point x="750.0" y="801.089552239"/>
      <point x="750" y="819" type="qcurve" smooth="yes"/>
      <point x="750.0" y="886.164179104"/>
      <point x="667.074626866" y="950.0"/>
      <point x="582" y="950" type="qcurve" smooth="yes"/>
      <point x="505.134328358" y="950.0"/>
      <point x="371.492537313" y="915.28358209"/>
      <point x="270" y="872" type="qcurve"/>
      <point x="244" y="987" type="line"/>
      <point x="346.23880597" y="1031.7761194"/>
      <point x="523.507462687" y="1077.0"/>
    </contour>
    <contour>
      <point x="623" y="268" type="qcurve"/>
      <point x="694" y="549" type="line"/>
      <point x="405.194029851" y="547.507462687"/>
      <point x="182.0" y="358.686567164"/>
      <point x="182" y="246" type="qcurve" smooth="yes"/>
      <point x="182.0" y="175.850746269"/>
      <point x="267.343283582" y="98.0"/>
      <point x="336" y="98" type="qcurve" smooth="yes"/>
      <point x="397.194029851" y="98.0"/>
      <point x="535.686567164" y="181.432835821"/>
    </contour>
  </outline>
</glyph>
